  0
SECTION
  2
HEADER
  9
$ACADVER
  1
AC1006
  9
$EXTMIN
 10
0.000000
 20
0.000000
 30
0.000000
  9
$EXTMAX
 10
625.000000
 20
682.000000
 30
0.000000
  0
ENDSEC
  0
SECTION
  2
ENTITIES
  0
POLYLINE
  8
0
 66
1
 70
1
  0
VERTEX
  8
0
 10
130.634859
 20
644.927420
 42
0.000000
  0
VERTEX
  8
0
 10
128.000000
 20
642.854840
 42
0.000000
  0
VERTEX
  8
0
 10
128.000000
 20
476.998848
 42
0.000204
  0
VERTEX
  8
0
 10
128.040986
 20
376.705484
 42
0.002255
  0
VERTEX
  8
0
 10
128.254969
 20
336.545778
 42
0.001330
  0
VERTEX
  8
0
 10
128.560963
 20
312.064158
 42
0.194976
  0
VERTEX
  8
0
 10
129.648151
 20
309.494706
 42
0.078562
  0
VERTEX
  8
0
 10
132.084318
 20
307.723690
 42
0.004362
  0
VERTEX
  8
0
 10
140.518590
 20
303.512618
 42
0.005408
  0
VERTEX
  8
0
 10
152.154579
 20
297.984334
 42
0.002003
  0
VERTEX
  8
0
 10
168.653684
 20
290.443259
 42
-0.002636
  0
VERTEX
  8
0
 10
174.733104
 20
287.655292
 42
-0.000948
  0
VERTEX
  8
0
 10
183.358323
 20
283.624772
 42
-0.000940
  0
VERTEX
  8
0
 10
192.794325
 20
279.171891
 42
-0.001115
  0
VERTEX
  8
0
 10
201.690653
 20
274.928886
 42
0.001909
  0
VERTEX
  8
0
 10
204.861147
 20
273.422932
 42
0.002989
  0
VERTEX
  8
0
 10
207.601354
 20
272.154110
 42
0.000823
  0
VERTEX
  8
0
 10
209.994558
 20
271.068046
 42
0.106493
  0
VERTEX
  8
0
 10
210.310420
 20
271.000000
 42
-0.108362
  0
VERTEX
  8
0
 10
210.634883
 20
270.928846
 42
-0.000304
  0
VERTEX
  8
0
 10
214.690800
 20
269.057061
 42
-0.001804
  0
VERTEX
  8
0
 10
219.267700
 20
266.921387
 42
-0.001123
  0
VERTEX
  8
0
 10
224.619767
 20
264.385740
 42
0.000669
  0
VERTEX
  8
0
 10
234.907529
 20
259.500268
 42
0.001023
  0
VERTEX
  8
0
 10
243.844609
 20
255.293225
 42
0.001165
  0
VERTEX
  8
0
 10
251.776614
 20
251.601620
 42
0.001552
  0
VERTEX
  8
0
 10
259.000000
 20
248.287441
 42
-0.001522
  0
VERTEX
  8
0
 10
261.699224
 20
247.049199
 42
-0.000612
  0
VERTEX
  8
0
 10
265.381250
 20
245.341044
 42
-0.000606
  0
VERTEX
  8
0
 10
269.342886
 20
243.491436
 42
-0.000766
  0
VERTEX
  8
0
 10
273.000000
 20
241.771764
 42
0.003002
  0
VERTEX
  8
0
 10
285.980891
 20
235.738513
 42
0.017512
  0
VERTEX
  8
0
 10
292.938214
 20
232.845661
 42
0.033349
  0
VERTEX
  8
0
 10
297.400161
 20
231.502698
 42
0.103146
  0
VERTEX
  8
0
 10
300.530342
 20
231.439714
 42
0.051248
  0
VERTEX
  8
0
 10
303.820965
 20
232.413986
 42
0.007101
  0
VERTEX
  8
0
 10
310.379679
 20
235.221510
 42
0.005519
  0
VERTEX
  8
0
 10
320.117387
 20
239.683872
 42
0.001422
  0
VERTEX
  8
0
 10
335.731039
 20
247.102880
 42
-0.001884
  0
VERTEX
  8
0
 10
339.690880
 20
248.979968
 42
-0.002950
  0
VERTEX
  8
0
 10
343.112236
 20
250.561471
 42
-0.000804
  0
VERTEX
  8
0
 10
346.101446
 20
251.916067
 42
-0.106366
  0
VERTEX
  8
0
 10
346.491528
 20
252.000000
 42
0.106205
  0
VERTEX
  8
0
 10
346.881677
 20
252.083817
 42
0.000802
  0
VERTEX
  8
0
 10
349.873308
 20
253.437188
 42
0.002945
  0
VERTEX
  8
0
 10
353.297401
 20
255.017216
 42
0.001880
  0
VERTEX
  8
0
 10
357.260489
 20
256.892554
 42
-0.000749
  0
VERTEX
  8
0
 10
361.656921
 20
258.985132
 42
-0.000599
  0
VERTEX
  8
0
 10
366.401519
 20
261.227759
 42
-0.000605
  0
VERTEX
  8
0
 10
370.798131
 20
263.292971
 42
-0.001532
  0
VERTEX
  8
0
 10
374.000000
 20
264.780304
 42
0.001061
  0
VERTEX
  8
0
 10
377.156268
 20
266.242838
 42
0.000450
  0
VERTEX
  8
0
 10
381.381250
 20
268.216123
 42
0.000446
  0
VERTEX
  8
0
 10
385.887120
 20
270.330440
 42
0.000584
  0
VERTEX
  8
0
 10
390.000000
 20
272.270692
 42
-0.000362
  0
VERTEX
  8
0
 10
401.192500
 20
277.556816
 42
-0.000745
  0
VERTEX
  8
0
 10
409.963047
 20
281.675335
 42
-0.000919
  0
VERTEX
  8
0
 10
416.757593
 20
284.838393
 42
-0.002625
  0
VERTEX
  8
0
 10
421.500000
 20
287.005359
 42
0.003006
  0
VERTEX
  8
0
 10
424.207064
 20
288.244807
 42
0.000734
  0
VERTEX
  8
0
 10
428.653701
 20
290.321104
 42
0.000752
  0
VERTEX
  8
0
 10
433.743814
 20
292.716313
 42
0.000750
  0
VERTEX
  8
0
 10
438.831749
 20
295.129189
 42
-0.001315
  0
VERTEX
  8
0
 10
443.591290
 20
297.379741
 42
-0.002099
  0
VERTEX
  8
0
 10
447.672265
 20
299.275449
 42
-0.000411
  0
VERTEX
  8
0
 10
451.274609
 20
300.926887
 42
-0.107669
  0
VERTEX
  8
0
 10
451.610200
 20
301.000000
 42
0.119999
  0
VERTEX
  8
0
 10
453.961494
 20
301.572550
 42
0.007286
  0
VERTEX
  8
0
 10
460.393953
 20
305.022428
 42
0.007513
  0
VERTEX
  8
0
 10
466.706511
 20
308.652527
 42
0.113952
  0
VERTEX
  8
0
 10
468.518686
 20
310.388174
 42
0.143053
  0
VERTEX
  8
0
 10
469.462381
 20
313.484213
 42
0.001070
  0
VERTEX
  8
0
 10
469.718933
 20
340.369245
 42
0.002007
  0
VERTEX
  8
0
 10
469.863046
 20
382.916429
 42
0.000235
  0
VERTEX
  8
0
 10
469.758822
 20
477.926352
 42
0.000000
  0
VERTEX
  8
0
 10
469.500000
 20
643.176830
 42
0.000000
  0
VERTEX
  8
0
 10
467.139216
 20
645.088415
 42
0.165924
  0
VERTEX
  8
0
 10
463.599488
 20
646.387708
 42
0.002893
  0
VERTEX
  8
0
 10
442.858783
 20
646.743556
 42
0.002673
  0
VERTEX
  8
0
 10
406.318322
 20
646.963668
 42
0.000169
  0
VERTEX
  8
0
 10
299.024075
 20
647.000000
 42
0.000000
  0
VERTEX
  8
0
 10
133.269717
 20
647.000000
 42
0.000000
  0
SEQEND
  0
POLYLINE
  8
0
 66
1
 70
1
  0
VERTEX
  8
0
 10
458.753068
 20
476.228047
 42
0.000000
  0
VERTEX
  8
0
 10
459.006137
 20
316.956094
 42
0.000000
  0
VERTEX
  8
0
 10
449.753068
 20
312.594351
 42
0.000002
  0
VERTEX
  8
0
 10
445.558264
 20
310.616970
 42
0.000001
  0
VERTEX
  8
0
 10
440.574339
 20
308.267568
 42
0.000001
  0
VERTEX
  8
0
 10
435.614449
 20
305.929467
 42
0.000002
  0
VERTEX
  8
0
 10
431.500000
 20
303.989876
 42
-0.000971
  0
VERTEX
  8
0
 10
427.760940
 20
302.236095
 42
-0.000936
  0
VERTEX
  8
0
 10
423.968750
 20
300.475004
 42
-0.000925
  0
VERTEX
  8
0
 10
420.621920
 20
298.935849
 42
-0.003415
  0
VERTEX
  8
0
 10
418.500000
 20
297.982233
 42
0.003435
  0
VERTEX
  8
0
 10
416.352617
 20
297.017069
 42
0.000875
  0
VERTEX
  8
0
 10
412.884375
 20
295.422156
 42
0.000892
  0
VERTEX
  8
0
 10
408.930469
 20
293.586957
 42
0.000903
  0
VERTEX
  8
0
 10
405.000000
 20
291.745462
 42
-0.000753
  0
VERTEX
  8
0
 10
400.996198
 20
289.868142
 42
-0.000667
  0
VERTEX
  8
0
 10
396.821875
 20
287.925304
 42
-0.000669
  0
VERTEX
  8
0
 10
393.058242
 20
286.185833
 42
-0.002049
  0
VERTEX
  8
0
 10
390.500000
 20
285.020303
 42
0.003368
  0
VERTEX
  8
0
 10
387.795882
 20
283.779682
 42
0.000825
  0
VERTEX
  8
0
 10
383.362765
 20
281.700631
 42
0.000845
  0
VERTEX
  8
0
 10
378.290782
 20
279.301256
 42
0.000844
  0
VERTEX
  8
0
 10
373.224305
 20
276.883502
 42
-0.001018
  0
VERTEX
  8
0
 10
368.493486
 20
274.627948
 42
-0.001641
  0
VERTEX
  8
0
 10
364.453930
 20
272.728279
 42
-0.000251
  0
VERTEX
  8
0
 10
360.865873
 20
271.057488
 42
-0.109255
  0
VERTEX
  8
0
 10
360.605920
 20
271.000000
 42
0.108330
  0
VERTEX
  8
0
 10
360.345693
 20
270.942950
 42
0.000246
  0
VERTEX
  8
0
 10
356.726796
 20
269.273921
 42
0.001618
  0
VERTEX
  8
0
 10
352.653045
 20
267.376672
 42
0.001003
  0
VERTEX
  8
0
 10
347.881616
 20
265.123987
 42
-0.000551
  0
VERTEX
  8
0
 10
342.737877
 20
262.689830
 42
-0.000530
  0
VERTEX
  8
0
 10
337.521475
 20
260.235064
 42
-0.000523
  0
VERTEX
  8
0
 10
332.918696
 20
258.080889
 42
-0.001924
  0
VERTEX
  8
0
 10
330.000000
 20
256.732269
 42
0.001007
  0
VERTEX
  8
0
 10
322.575729
 20
253.318308
 42
0.000753
  0
VERTEX
  8
0
 10
314.408496
 20
249.527824
 42
0.000593
  0
VERTEX
  8
0
 10
306.986917
 20
246.059091
 42
0.004786
  0
VERTEX
  8
0
 10
303.596362
 20
244.429733
 42
-0.058114
  0
VERTEX
  8
0
 10
300.575251
 20
243.356136
 42
-0.099812
  0
VERTEX
  8
0
 10
297.913885
 20
243.285904
 42
-0.057569
  0
VERTEX
  8
0
 10
294.520884
 20
244.289537
 42
-0.009318
  0
VERTEX
  8
0
 10
288.229623
 20
247.108413
 42
0.000508
  0
VERTEX
  8
0
 10
284.484497
 20
248.866329
 42
0.000407
  0
VERTEX
  8
0
 10
280.448702
 20
250.751670
 42
0.000412
  0
VERTEX
  8
0
 10
276.713396
 20
252.489188
 42
0.001048
  0
VERTEX
  8
0
 10
274.000000
 20
253.741729
 42
-0.002128
  0
VERTEX
  8
0
 10
271.144350
 20
255.067426
 42
-0.000646
  0
VERTEX
  8
0
 10
266.825892
 20
257.101405
 42
-0.000647
  0
VERTEX
  8
0
 10
261.991924
 20
259.393476
 42
-0.000705
  0
VERTEX
  8
0
 10
257.300910
 20
261.633316
 42
0.001487
  0
VERTEX
  8
0
 10
252.974954
 20
263.690547
 42
0.002360
  0
VERTEX
  8
0
 10
249.257327
 20
265.423537
 42
0.000517
  0
VERTEX
  8
0
 10
245.986072
 20
266.925596
 42
0.107769
  0
VERTEX
  8
0
 10
245.644881
 20
267.000000
 42
-0.107185
  0
VERTEX
  8
0
 10
245.301178
 20
267.074536
 42
-0.000397
  0
VERTEX
  8
0
 10
241.549251
 20
268.785727
 42
-0.002055
  0
VERTEX
  8
0
 10
237.300627
 20
270.748674
 42
-0.001287
  0
VERTEX
  8
0
 10
232.343971
 20
273.079070
 42
0.000307
  0
VERTEX
  8
0
 10
227.059950
 20
275.576035
 42
0.000313
  0
VERTEX
  8
0
 10
221.804166
 20
278.051695
 42
0.000303
  0
VERTEX
  8
0
 10
217.232810
 20
280.198091
 42
0.001295
  0
VERTEX
  8
0
 10
214.500000
 20
281.470587
 42
-0.000542
  0
VERTEX
  8
0
 10
207.311710
 20
284.804552
 42
-0.000376
  0
VERTEX
  8
0
 10
199.193450
 20
288.587958
 42
-0.000379
  0
VERTEX
  8
0
 10
191.220706
 20
292.318198
 42
-0.000627
  0
VERTEX
  8
0
 10
184.500000
 20
295.479136
 42
0.001017
  0
VERTEX
  8
0
 10
181.034607
 20
297.105707
 42
0.000776
  0
VERTEX
  8
0
 10
177.234375
 20
298.872838
 42
0.000784
  0
VERTEX
  8
0
 10
173.668106
 20
300.517660
 42
0.001846
  0
VERTEX
  8
0
 10
171.000000
 20
301.731256
 42
-0.003260
  0
VERTEX
  8
0
 10
163.991265
 20
304.943160
 42
-0.001105
  0
VERTEX
  8
0
 10
153.835711
 20
309.704867
 42
-0.000496
  0
VERTEX
  8
0
 10
143.427941
 20
314.625554
 42
-0.016890
  0
VERTEX
  8
0
 10
141.000000
 20
315.878520
 42
-0.267809
  0
VERTEX
  8
0
 10
140.036260
 20
317.496289
 42
-0.000752
  0
VERTEX
  8
0
 10
139.711386
 20
343.639067
 42
-0.002095
  0
VERTEX
  8
0
 10
139.436736
 20
384.427329
 42
-0.000240
  0
VERTEX
  8
0
 10
139.246942
 20
476.362025
 42
0.000000
  0
VERTEX
  8
0
 10
138.993884
 20
636.006116
 42
0.000000
  0
VERTEX
  8
0
 10
298.746942
 20
635.753058
 42
0.000000
  0
VERTEX
  8
0
 10
458.500000
 20
635.500000
 42
0.000000
  0
SEQEND
  0
POLYLINE
  8
0
 66
1
 70
1
  0
VERTEX
  8
0
 10
40.666667
 20
188.333333
 42
0.157369
  0
VERTEX
  8
0
 10
40.404302
 20
187.820926
 42
0.012597
  0
VERTEX
  8
0
 10
40.195833
 20
186.295833
 42
0.016057
  0
VERTEX
  8
0
 10
40.048569
 20
184.424828
 42
0.011610
  0
VERTEX
  8
0
 10
40.000000
 20
182.333333
 42
0.008514
  0
VERTEX
  8
0
 10
40.058838
 20
178.878420
 42
0.120156
  0
VERTEX
  8
0
 10
40.390625
 20
177.694444
 42
0.227954
  0
VERTEX
  8
0
 10
41.171731
 20
177.148331
 42
0.040499
  0
VERTEX
  8
0
 10
43.000000
 20
177.000000
 42
0.000000
  0
VERTEX
  8
0
 10
46.000000
 20
177.000000
 42
0.000000
  0
VERTEX
  8
0
 10
46.000000
 20
158.566422
 42
0.000000
  0
VERTEX
  8
0
 10
46.000000
 20
140.132845
 42
0.000000
  0
VERTEX
  8
0
 10
43.250000
 20
139.816422
 42
0.054549
  0
VERTEX
  8
0
 10
41.694828
 20
139.462855
 42
0.175693
  0
VERTEX
  8
0
 10
40.882886
 20
138.805764
 42
0.106113
  0
VERTEX
  8
0
 10
40.454017
 20
137.558363
 42
0.013910
  0
VERTEX
  8
0
 10
40.195209
 20
134.750000
 42
0.000000
  0
VERTEX
  8
0
 10
39.890418
 20
130.000000
 42
0.000000
  0
VERTEX
  8
0
 10
55.085719
 20
130.000000
 42
0.000000
  0
VERTEX
  8
0
 10
70.281021
 20
130.000000
 42
0.000000
  0
VERTEX
  8
0
 10
69.557425
 20
151.500000
 42
-0.001828
  0
VERTEX
  8
0
 10
69.310125
 20
159.744218
 42
-0.003051
  0
VERTEX
  8
0
 10
69.169697
 20
166.684375
 42
-0.000375
  0
VERTEX
  8
0
 10
69.087443
 20
172.831720
 42
-0.417917
  0
VERTEX
  8
0
 10
69.253611
 20
173.000000
 42
-0.310385
  0
VERTEX
  8
0
 10
69.482745
 20
172.842597
 42
-0.000305
  0
VERTEX
  8
0
 10
71.849408
 20
166.674319
 42
-0.002665
  0
VERTEX
  8
0
 10
74.469427
 20
159.722568
 42
-0.001613
  0
VERTEX
  8
0
 10
77.500888
 20
151.465768
 42
0.000000
  0
VERTEX
  8
0
 10
85.328384
 20
129.931537
 42
0.000000
  0
VERTEX
  8
0
 10
94.792114
 20
130.215768
 42
0.000000
  0
VERTEX
  8
0
 10
104.255844
 20
130.500000
 42
0.000000
  0
VERTEX
  8
0
 10
107.150355
 20
138.000000
 42
0.003742
  0
VERTEX
  8
0
 10
108.571300
 20
141.765485
 42
0.001374
  0
VERTEX
  8
0
 10
110.524227
 20
147.105484
 42
0.001361
  0
VERTEX
  8
0
 10
112.626138
 20
152.951804
 42
0.001633
  0
VERTEX
  8
0
 10
114.571243
 20
158.465477
 42
-0.002294
  0
VERTEX
  8
0
 10
116.345420
 20
163.473521
 42
-0.003553
  0
VERTEX
  8
0
 10
117.927739
 20
167.779361
 42
-0.001132
  0
VERTEX
  8
0
 10
119.331319
 20
171.491019
 42
-0.107968
  0
VERTEX
  8
0
 10
119.641424
 20
171.965477
 42
-0.659628
  0
VERTEX
  8
0
 10
119.857946
 20
171.876617
 42
-0.000987
  0
VERTEX
  8
0
 10
119.932992
 20
166.174234
 42
-0.004152
  0
VERTEX
  8
0
 10
119.952182
 20
159.516270
 42
-0.002393
  0
VERTEX
  8
0
 10
119.870357
 20
151.500000
 42
0.000000
  0
VERTEX
  8
0
 10
119.555487
 20
130.500000
 42
0.000000
  0
VERTEX
  8
0
 10
134.833611
 20
130.223653
 42
0.000000
  0
VERTEX
  8
0
 10
150.111734
 20
129.947306
 42
0.000000
  0
VERTEX
  8
0
 10
149.805867
 20
134.723653
 42
0.013752
  0
VERTEX
  8
0
 10
149.546573
 20
137.551054
 42
0.105766
  0
VERTEX
  8
0
 10
149.118115
 20
138.803156
 42
0.176072
  0
VERTEX
  8
0
 10
148.306251
 20
139.462066
 42
0.054716
  0
VERTEX
  8
0
 10
146.750000
 20
139.816422
 42
0.000000
  0
VERTEX
  8
0
 10
144.000000
 20
140.132845
 42
0.000000
  0
VERTEX
  8
0
 10
144.000000
 20
158.500000
 42
0.000000
  0
VERTEX
  8
0
 10
144.000000
 20
176.867155
 42
0.000000
  0
VERTEX
  8
0
 10
146.750000
 20
177.183578
 42
0.055387
  0
VERTEX
  8
0
 10
148.350484
 20
177.550259
 42
0.200958
  0
VERTEX
  8
0
 10
149.110617
 20
178.233962
 42
0.101473
  0
VERTEX
  8
0
 10
149.436255
 20
179.568116
 42
0.009286
  0
VERTEX
  8
0
 10
149.500000
 20
183.000000
 42
0.000000
  0
VERTEX
  8
0
 10
149.500000
 20
188.500000
 42
0.000000
  0
VERTEX
  8
0
 10
128.020671
 20
188.500000
 42
0.000000
  0
VERTEX
  8
0
 10
106.541343
 20
188.500000
 42
0.000000
  0
VERTEX
  8
0
 10
101.063089
 20
171.250000
 42
-0.003051
  0
VERTEX
  8
0
 10
98.918163
 20
164.636190
 42
-0.005006
  0
VERTEX
  8
0
 10
97.012370
 20
159.067187
 42
-0.001055
  0
VERTEX
  8
0
 10
95.290644
 20
154.228363
 42
-0.316704
  0
VERTEX
  8
0
 10
94.966275
 20
154.000000
 42
-0.316680
  0
VERTEX
  8
0
 10
94.642404
 20
154.227991
 42
-0.001119
  0
VERTEX
  8
0
 10
92.973017
 20
158.920312
 42
-0.005157
  0
VERTEX
  8
0
 10
91.125289
 20
164.327915
 42
-0.003144
  0
VERTEX
  8
0
 10
89.049332
 20
170.750000
 42
0.004525
  0
VERTEX
  8
0
 10
86.937301
 20
177.222546
 42
0.006907
  0
VERTEX
  8
0
 10
84.976741
 20
182.795502
 42
0.002937
  0
VERTEX
  8
0
 10
83.216476
 20
187.501081
 42
0.158465
  0
VERTEX
  8
0
 10
82.625474
 20
188.234687
 42
0.143927
  0
VERTEX
  8
0
 10
80.463633
 20
188.885549
 42
0.001049
  0
VERTEX
  8
0
 10
61.461021
 20
188.970079
 42
0.000812
  0
VERTEX
  8
0
 10
42.235632
 20
188.984046
 42
0.198679
  0
SEQEND
  0
POLYLINE
  8
0
 66
1
 70
1
  0
VERTEX
  8
0
 10
180.670474
 20
188.275833
 42
0.062742
  0
VERTEX
  8
0
 10
180.380198
 20
187.639976
 42
0.000470
  0
VERTEX
  8
0
 10
178.668774
 20
182.146269
 42
0.001753
  0
VERTEX
  8
0
 10
176.734408
 20
175.838282
 42
0.001123
  0
VERTEX
  8
0
 10
174.530095
 20
168.499659
 42
-0.001302
  0
VERTEX
  8
0
 10
168.656720
 20
148.971406
 42
-0.027915
  0
VERTEX
  8
0
 10
166.587734
 20
143.313535
 42
-0.120083
  0
VERTEX
  8
0
 10
164.765318
 20
140.893310
 42
-0.173294
  0
VERTEX
  8
0
 10
162.265281
 20
140.000000
 42
0.030697
  0
VERTEX
  8
0
 10
160.227366
 20
139.874768
 42
0.220872
  0
VERTEX
  8
0
 10
159.413264
 20
139.367185
 42
0.135900
  0
VERTEX
  8
0
 10
159.062434
 20
138.265804
 42
0.009558
  0
VERTEX
  8
0
 10
159.000000
 20
135.000000
 42
0.000000
  0
VERTEX
  8
0
 10
159.000000
 20
130.000000
 42
0.000000
  0
VERTEX
  8
0
 10
176.000000
 20
130.000000
 42
0.003875
  0
VERTEX
  8
0
 10
183.708545
 20
130.059741
 42
0.012222
  0
VERTEX
  8
0
 10
188.872591
 20
130.266119
 42
0.008916
  0
VERTEX
  8
0
 10
192.521163
 20
130.566780
 42
0.385204
  0
VERTEX
  8
0
 10
193.000000
 20
131.096093
 42
-0.054304
  0
VERTEX
  8
0
 10
193.075075
 20
131.785305
 42
-0.005034
  0
VERTEX
  8
0
 10
193.461469
 20
133.457606
 42
-0.006435
  0
VERTEX
  8
0
 10
193.969338
 20
135.446508
 42
-0.005008
  0
VERTEX
  8
0
 10
194.570958
 20
137.596093
 42
0.000000
  0
VERTEX
  8
0
 10
196.141917
 20
143.000000
 42
0.000000
  0
VERTEX
  8
0
 10
204.592397
 20
143.000000
 42
-0.013778
  0
VERTEX
  8
0
 10
210.708402
 20
142.831440
 42
-0.150885
  0
VERTEX
  8
0
 10
212.986763
 20
141.987833
 42
-0.154028
  0
VERTEX
  8
0
 10
214.370503
 20
140.012280
 42
-0.014533
  0
VERTEX
  8
0
 10
216.004400
 20
134.250000
 42
0.000000
  0
VERTEX
  8
0
 10
217.077088
 20
130.000000
 42
0.000000
  0
VERTEX
  8
0
 10
233.038544
 20
130.000000
 42
0.000000
  0
VERTEX
  8
0
 10
249.000000
 20
130.000000
 42
0.000000
  0
VERTEX
  8
0
 10
249.000000
 20
135.000000
 42
0.010575
  0
VERTEX
  8
0
 10
248.936831
 20
137.986346
 42
0.100262
  0
VERTEX
  8
0
 10
248.631690
 20
139.221726
 42
0.212554
  0
VERTEX
  8
0
 10
247.950628
 20
139.807014
 42
0.072888
  0
VERTEX
  8
0
 10
246.633805
 20
140.000000
 42
-0.149569
  0
VERTEX
  8
0
 10
245.231104
 20
140.429201
 42
-0.117259
  0
VERTEX
  8
0
 10
244.148719
 20
141.606377
 42
-0.045324
  0
VERTEX
  8
0
 10
243.042105
 20
144.088168
 42
-0.005535
  0
VERTEX
  8
0
 10
241.179799
 20
149.750000
 42
-0.002831
  0
VERTEX
  8
0
 10
239.744297
 20
154.373484
 42
-0.001368
  0
VERTEX
  8
0
 10
237.956291
 20
160.307813
 42
-0.001356
  0
VERTEX
  8
0
 10
236.126565
 20
166.502570
 42
-0.001948
  0
VERTEX
  8
0
 10
234.542227
 20
172.000000
 42
0.002217
  0
VERTEX
  8
0
 10
233.113652
 20
176.946938
 42
0.002872
  0
VERTEX
  8
0
 10
231.757276
 20
181.470595
 42
0.002166
  0
VERTEX
  8
0
 10
230.582780
 20
185.248841
 42
0.025648
  0
VERTEX
  8
0
 10
230.046316
 20
186.687130
 42
0.198514
  0
VERTEX
  8
0
 10
228.716756
 20
187.977850
 42
0.072015
  0
VERTEX
  8
0
 10
226.109270
 20
188.601768
 42
0.020580
  0
VERTEX
  8
0
 10
220.837928
 20
188.865181
 42
0.001265
  0
VERTEX
  8
0
 10
205.125278
 20
188.963305
 42
0.003039
  0
VERTEX
  8
0
 10
195.899312
 20
188.941499
 42
0.004916
  0
VERTEX
  8
0
 10
188.052037
 20
188.798091
 42
0.001136
  0
VERTEX
  8
0
 10
181.213469
 20
188.590299
 42
0.251238
  0
SEQEND
  0
POLYLINE
  8
0
 66
1
 70
1
  0
VERTEX
  8
0
 10
208.344446
 20
164.250000
 42
0.000000
  0
VERTEX
  8
0
 10
210.860027
 20
155.000000
 42
0.000000
  0
VERTEX
  8
0
 10
204.823025
 20
155.000000
 42
-0.007385
  0
VERTEX
  8
0
 10
201.415346
 20
155.050332
 42
-0.067648
  0
VERTEX
  8
0
 10
199.957278
 20
155.292563
 42
-0.238411
  0
VERTEX
  8
0
 10
199.412647
 20
155.818357
 42
-0.177148
  0
VERTEX
  8
0
 10
199.426026
 20
156.667823
 42
0.022722
  0
VERTEX
  8
0
 10
199.780483
 20
157.733963
 42
0.002294
  0
VERTEX
  8
0
 10
200.496447
 20
160.311433
 42
0.002872
  0
VERTEX
  8
0
 10
201.318298
 20
163.393229
 42
0.002283
  0
VERTEX
  8
0
 10
202.171284
 20
166.729554
 42
-0.010329
  0
VERTEX
  8
0
 10
203.034364
 20
169.892386
 42
-0.019031
  0
VERTEX
  8
0
 10
203.886117
 20
172.419306
 42
-0.016618
  0
VERTEX
  8
0
 10
204.649836
 20
174.243951
 42
-0.529847
  0
VERTEX
  8
0
 10
205.052701
 20
174.311731
 42
-0.107760
  0
VERTEX
  8
0
 10
205.451281
 20
173.659157
 42
-0.004360
  0
VERTEX
  8
0
 10
206.339818
 20
171.021259
 42
-0.007462
  0
VERTEX
  8
0
 10
207.324262
 20
167.852914
 42
-0.005200
  0
SEQEND
  0
POLYLINE
  8
0
 66
1
 70
1
  0
VERTEX
  8
0
 10
258.000000
 20
183.061946
 42
0.000000
  0
VERTEX
  8
0
 10
258.000000
 20
177.000000
 42
0.000000
  0
VERTEX
  8
0
 10
261.000000
 20
177.000000
 42
0.000000
  0
VERTEX
  8
0
 10
264.000000
 20
177.000000
 42
0.000000
  0
VERTEX
  8
0
 10
264.000000
 20
158.500000
 42
0.000000
  0
VERTEX
  8
0
 10
264.000000
 20
140.000000
 42
0.000000
  0
VERTEX
  8
0
 10
261.000000
 20
140.000000
 42
0.038700
  0
VERTEX
  8
0
 10
259.180755
 20
139.858980
 42
0.222479
  0
VERTEX
  8
0
 10
258.400000
 20
139.333333
 42
0.126045
  0
VERTEX
  8
0
 10
258.062224
 20
138.199987
 42
0.009722
  0
VERTEX
  8
0
 10
258.000000
 20
135.000000
 42
0.000000
  0
VERTEX
  8
0
 10
258.000000
 20
130.000000
 42
0.000000
  0
VERTEX
  8
0
 10
276.000000
 20
130.000000
 42
0.000000
  0
VERTEX
  8
0
 10
294.000000
 20
130.000000
 42
0.000000
  0
VERTEX
  8
0
 10
294.115350
 20
139.750000
 42
-0.001109
  0
VERTEX
  8
0
 10
294.169349
 20
143.593869
 42
-0.001489
  0
VERTEX
  8
0
 10
294.236369
 20
147.076563
 42
-0.001020
  0
VERTEX
  8
0
 10
294.307253
 20
149.997950
 42
-0.015808
  0
VERTEX
  8
0
 10
294.365350
 20
151.000000
 42
-0.204384
  0
VERTEX
  8
0
 10
294.747828
 20
151.712365
 42
-0.109690
  0
VERTEX
  8
0
 10
295.659403
 20
152.159851
 42
-0.052371
  0
VERTEX
  8
0
 10
297.300627
 20
152.379736
 42
-0.011898
  0
VERTEX
  8
0
 10
300.111907
 20
152.393067
 42
-0.025126
  0
VERTEX
  8
0
 10
307.374763
 20
151.888988
 42
-0.190464
  0
VERTEX
  8
0
 10
310.337858
 20
150.285770
 42
-0.159235
  0
VERTEX
  8
0
 10
311.689275
 20
146.927674
 42
-0.016284
  0
VERTEX
  8
0
 10
311.986345
 20
138.250000
 42
0.000000
  0
VERTEX
  8
0
 10
312.000000
 20
130.000000
 42
0.000000
  0
VERTEX
  8
0
 10
329.500000
 20
130.000000
 42
0.000000
  0
VERTEX
  8
0
 10
347.000000
 20
130.000000
 42
0.000000
  0
VERTEX
  8
0
 10
347.000000
 20
135.000000
 42
0.010324
  0
VERTEX
  8
0
 10
346.937230
 20
138.039690
 42
0.105983
  0
VERTEX
  8
0
 10
346.625000
 20
139.250000
 42
0.217022
  0
VERTEX
  8
0
 10
345.919849
 20
139.819917
 42
0.063163
  0
VERTEX
  8
0
 10
344.500000
 20
140.000000
 42
-0.076667
  0
VERTEX
  8
0
 10
343.060219
 20
140.222073
 42
-0.226545
  0
VERTEX
  8
0
 10
342.348000
 20
140.887756
 42
-0.087032
  0
VERTEX
  8
0
 10
342.053136
 20
142.342640
 42
-0.006584
  0
VERTEX
  8
0
 10
342.000000
 20
146.377555
 42
0.028036
  0
VERTEX
  8
0
 10
341.733725
 20
151.122605
 42
0.144724
  0
VERTEX
  8
0
 10
340.721620
 20
153.519350
 42
0.126343
  0
VERTEX
  8
0
 10
338.496093
 20
155.150286
 42
0.019325
  0
VERTEX
  8
0
 10
333.277335
 20
157.010580
 42
-0.007184
  0
VERTEX
  8
0
 10
330.299075
 20
157.991410
 42
-0.064732
  0
VERTEX
  8
0
 10
329.072546
 20
158.601837
 42
-0.392124
  0
VERTEX
  8
0
 10
328.957664
 20
159.087404
 42
-0.178977
  0
VERTEX
  8
0
 10
329.500000
 20
159.545616
 42
0.020986
  0
VERTEX
  8
0
 10
336.609784
 20
162.462144
 42
0.101936
  0
VERTEX
  8
0
 10
340.101508
 20
165.031703
 42
0.147204
  0
VERTEX
  8
0
 10
341.630049
 20
168.270951
 42
0.061172
  0
VERTEX
  8
0
 10
341.759038
 20
173.155941
 42
0.052563
  0
VERTEX
  8
0
 10
340.947298
 20
177.143512
 42
0.110366
  0
VERTEX
  8
0
 10
339.368572
 20
179.864746
 42
0.079012
  0
VERTEX
  8
0
 10
336.414295
 20
182.193578
 42
0.017887
  0
VERTEX
  8
0
 10
330.713946
 20
185.118580
 42
0.000000
  0
VERTEX
  8
0
 10
323.500000
 20
188.500000
 42
0.000000
  0
VERTEX
  8
0
 10
290.750000
 20
188.811946
 42
0.000000
  0
VERTEX
  8
0
 10
258.000000
 20
189.123891
 42
0.000000
  0
SEQEND
  0
POLYLINE
  8
0
 66
1
 70
1
  0
VERTEX
  8
0
 10
309.428571
 20
173.428571
 42
-0.085814
  0
VERTEX
  8
0
 10
310.523913
 20
171.875280
 42
-0.105696
  0
VERTEX
  8
0
 10
310.931308
 20
170.153752
 42
-0.098275
  0
VERTEX
  8
0
 10
310.608595
 20
168.319541
 42
-0.065412
  0
VERTEX
  8
0
 10
309.580663
 20
166.441130
 42
-0.095321
  0
VERTEX
  8
0
 10
308.523863
 20
165.457853
 42
-0.082200
  0
VERTEX
  8
0
 10
307.122361
 20
164.873098
 42
-0.047097
  0
VERTEX
  8
0
 10
304.987293
 20
164.578491
 42
-0.010749
  0
VERTEX
  8
0
 10
301.336526
 20
164.500000
 42
0.000000
  0
VERTEX
  8
0
 10
294.511727
 20
164.500000
 42
0.000000
  0
VERTEX
  8
0
 10
294.314959
 20
169.750000
 42
0.000000
  0
VERTEX
  8
0
 10
294.118191
 20
175.000000
 42
0.000000
  0
VERTEX
  8
0
 10
300.987667
 20
175.000000
 42
-0.012934
  0
VERTEX
  8
0
 10
304.269129
 20
174.915100
 42
-0.033094
  0
VERTEX
  8
0
 10
306.628649
 20
174.635622
 42
-0.046773
  0
VERTEX
  8
0
 10
308.315281
 20
174.155115
 42
-0.103968
  0
SEQEND
  0
POLYLINE
  8
0
 66
1
 70
1
  0
VERTEX
  8
0
 10
357.687603
 20
188.354269
 42
0.156036
  0
VERTEX
  8
0
 10
357.417221
 20
187.829575
 42
0.013135
  0
VERTEX
  8
0
 10
357.201983
 20
186.301983
 42
0.016460
  0
VERTEX
  8
0
 10
357.050112
 20
184.426316
 42
0.011970
  0
VERTEX
  8
0
 10
357.000000
 20
182.333333
 42
0.009128
  0
VERTEX
  8
0
 10
357.059887
 20
179.053235
 42
0.100796
  0
VERTEX
  8
0
 10
357.367188
 20
177.783333
 42
0.220374
  0
VERTEX
  8
0
 10
358.073562
 20
177.189995
 42
0.066305
  0
VERTEX
  8
0
 10
359.500000
 20
177.000000
 42
0.000000
  0
VERTEX
  8
0
 10
362.000000
 20
177.000000
 42
0.000000
  0
VERTEX
  8
0
 10
362.000000
 20
158.500000
 42
0.000000
  0
VERTEX
  8
0
 10
362.000000
 20
140.000000
 42
0.000000
  0
VERTEX
  8
0
 10
359.500000
 20
140.000000
 42
0.063163
  0
VERTEX
  8
0
 10
358.080151
 20
139.819917
 42
0.217022
  0
VERTEX
  8
0
 10
357.375000
 20
139.250000
 42
0.105983
  0
VERTEX
  8
0
 10
357.062770
 20
138.039690
 42
0.010324
  0
VERTEX
  8
0
 10
357.000000
 20
135.000000
 42
0.000000
  0
VERTEX
  8
0
 10
357.000000
 20
130.000000
 42
0.000000
  0
VERTEX
  8
0
 10
377.000000
 20
130.000000
 42
0.000000
  0
VERTEX
  8
0
 10
397.000000
 20
130.000000
 42
0.000000
  0
VERTEX
  8
0
 10
397.000000
 20
135.000000
 42
0.010324
  0
VERTEX
  8
0
 10
396.937230
 20
138.039690
 42
0.105983
  0
VERTEX
  8
0
 10
396.625000
 20
139.250000
 42
0.217022
  0
VERTEX
  8
0
 10
395.919849
 20
139.819917
 42
0.063163
  0
VERTEX
  8
0
 10
394.500000
 20
140.000000
 42
0.000000
  0
VERTEX
  8
0
 10
392.000000
 20
140.000000
 42
0.000000
  0
VERTEX
  8
0
 10
392.000000
 20
158.500000
 42
0.000000
  0
VERTEX
  8
0
 10
392.000000
 20
177.000000
 42
0.000000
  0
VERTEX
  8
0
 10
394.549904
 20
177.000000
 42
0.062660
  0
VERTEX
  8
0
 10
396.035443
 20
177.186900
 42
0.241406
  0
VERTEX
  8
0
 10
396.711072
 20
177.784343
 42
0.099515
  0
VERTEX
  8
0
 10
396.939279
 20
179.077974
 42
0.007086
  0
VERTEX
  8
0
 10
396.799904
 20
182.750000
 42
0.000000
  0
VERTEX
  8
0
 10
396.500000
 20
188.500000
 42
0.000000
  0
VERTEX
  8
0
 10
377.437603
 20
188.770936
 42
0.003421
  0
VERTEX
  8
0
 10
370.080928
 20
188.825163
 42
0.005406
  0
VERTEX
  8
0
 10
363.772801
 20
188.760301
 42
0.001621
  0
VERTEX
  8
0
 10
358.322657
 20
188.627637
 42
0.191754
  0
SEQEND
  0
POLYLINE
  8
0
 66
1
 70
1
  0
VERTEX
  8
0
 10
405.683178
 20
188.349845
 42
0.156317
  0
VERTEX
  8
0
 10
405.414490
 20
187.827735
 42
0.013022
  0
VERTEX
  8
0
 10
405.200684
 20
186.300684
 42
0.016375
  0
VERTEX
  8
0
 10
405.049786
 20
184.426001
 42
0.011894
  0
VERTEX
  8
0
 10
405.000000
 20
182.333333
 42
0.008514
  0
VERTEX
  8
0
 10
405.058838
 20
178.878420
 42
0.120156
  0
VERTEX
  8
0
 10
405.390625
 20
177.694444
 42
0.227954
  0
VERTEX
  8
0
 10
406.171731
 20
177.148331
 42
0.040499
  0
VERTEX
  8
0
 10
408.000000
 20
177.000000
 42
0.000000
  0
VERTEX
  8
0
 10
411.000000
 20
177.000000
 42
0.000000
  0
VERTEX
  8
0
 10
411.000000
 20
158.500000
 42
-0.001703
  0
VERTEX
  8
0
 10
410.959789
 20
146.694439
 42
-0.025225
  0
VERTEX
  8
0
 10
410.722973
 20
142.562500
 42
-0.097241
  0
VERTEX
  8
0
 10
410.136748
 20
140.677823
 42
-0.275511
  0
VERTEX
  8
0
 10
409.000000
 20
140.000000
 42
0.110458
  0
VERTEX
  8
0
 10
407.953987
 20
139.766065
 42
0.189791
  0
VERTEX
  8
0
 10
407.350000
 20
139.125000
 42
0.083766
  0
VERTEX
  8
0
 10
407.064942
 20
137.809325
 42
0.011557
  0
VERTEX
  8
0
 10
407.000000
 20
135.000000
 42
0.000000
  0
VERTEX
  8
0
 10
407.000000
 20
130.000000
 42
0.000000
  0
VERTEX
  8
0
 10
422.075073
 20
130.000000
 42
0.000000
  0
VERTEX
  8
0
 10
437.150146
 20
130.000000
 42
0.000000
  0
VERTEX
  8
0
 10
436.588459
 20
138.750000
 42
-0.003275
  0
VERTEX
  8
0
 10
435.791166
 20
152.587557
 42
-0.006660
  0
VERTEX
  8
0
 10
435.380725
 20
163.473851
 42
-0.002001
  0
VERTEX
  8
0
 10
435.198215
 20
172.435262
 42
-0.419014
  0
VERTEX
  8
0
 10
435.753788
 20
173.000000
 42
-0.229780
  0
VERTEX
  8
0
 10
436.190987
 20
172.787881
 42
-0.019648
  0
VERTEX
  8
0
 10
436.943517
 20
171.751563
 42
-0.022842
  0
VERTEX
  8
0
 10
437.772496
 20
170.378281
 42
-0.015606
  0
VERTEX
  8
0
 10
438.591863
 20
168.750000
 42
0.007865
  0
VERTEX
  8
0
 10
439.835227
 20
166.180851
 42
0.000994
  0
VERTEX
  8
0
 10
442.618125
 20
160.681250
 42
0.001167
  0
VERTEX
  8
0
 10
445.950291
 20
154.166197
 42
0.000969
  0
VERTEX
  8
0
 10
449.524972
 20
147.250000
 42
0.000000
  0
VERTEX
  8
0
 10
458.483144
 20
130.000000
 42
0.000000
  0
VERTEX
  8
0
 10
480.241572
 20
130.000000
 42
0.000000
  0
VERTEX
  8
0
 10
502.000000
 20
130.000000
 42
0.000000
  0
VERTEX
  8
0
 10
502.000000
 20
153.500000
 42
-0.001273
  0
VERTEX
  8
0
 10
502.038556
 20
168.644071
 42
-0.019955
  0
VERTEX
  8
0
 10
502.271277
 20
173.812500
 42
-0.073428
  0
VERTEX
  8
0
 10
502.836465
 20
176.210196
 42
-0.307340
  0
VERTEX
  8
0
 10
504.000000
 20
177.000000
 42
0.126921
  0
VERTEX
  8
0
 10
505.060987
 20
177.273731
 42
0.188545
  0
VERTEX
  8
0
 10
505.667046
 20
178.003432
 42
0.071828
  0
VERTEX
  8
0
 10
505.941429
 20
179.537626
 42
0.008391
  0
VERTEX
  8
0
 10
506.000000
 20
183.027457
 42
0.000000
  0
VERTEX
  8
0
 10
506.000000
 20
189.054913
 42
0.000000
  0
VERTEX
  8
0
 10
491.750000
 20
188.777457
 42
0.000000
  0
VERTEX
  8
0
 10
477.500000
 20
188.500000
 42
0.000000
  0
VERTEX
  8
0
 10
477.606755
 20
168.726578
 42
-0.002864
  0
VERTEX
  8
0
 10
477.604279
 20
161.185062
 42
-0.005004
  0
VERTEX
  8
0
 10
477.503917
 20
154.937853
 42
-0.001423
  0
VERTEX
  8
0
 10
477.350975
 20
149.650604
 42
-0.654755
  0
VERTEX
  8
0
 10
477.106755
 20
149.553170
 42
-0.078042
  0
VERTEX
  8
0
 10
476.717173
 20
150.081677
 42
-0.000440
  0
VERTEX
  8
0
 10
473.849574
 20
155.609118
 42
-0.001875
  0
VERTEX
  8
0
 10
470.605483
 20
161.933741
 42
-0.001189
  0
VERTEX
  8
0
 10
466.870518
 20
169.326592
 42
0.000000
  0
VERTEX
  8
0
 10
457.241036
 20
188.500000
 42
0.000000
  0
VERTEX
  8
0
 10
431.803696
 20
188.766511
 42
0.002539
  0
VERTEX
  8
0
 10
422.002933
 20
188.819424
 42
0.004068
  0
VERTEX
  8
0
 10
413.637891
 20
188.754051
 42
0.000928
  0
VERTEX
  8
0
 10
406.326725
 20
188.623854
 42
0.193807
  0
SEQEND
  0
POLYLINE
  8
0
 66
1
 70
1
  0
VERTEX
  8
0
 10
515.405527
 20
187.614404
 42
0.068349
  0
VERTEX
  8
0
 10
515.218045
 20
186.813409
 42
0.013860
  0
VERTEX
  8
0
 10
515.121982
 20
185.353783
 42
0.014378
  0
VERTEX
  8
0
 10
515.106102
 20
183.636909
 42
0.013028
  0
VERTEX
  8
0
 10
515.186912
 20
181.864404
 42
0.018034
  0
VERTEX
  8
0
 10
515.441276
 20
179.511269
 42
0.089476
  0
VERTEX
  8
0
 10
515.861036
 20
178.253952
 42
0.149623
  0
VERTEX
  8
0
 10
516.578719
 20
177.553767
 42
0.083930
  0
VERTEX
  8
0
 10
517.750000
 20
177.180449
 42
-0.201810
  0
VERTEX
  8
0
 10
519.044494
 20
176.405636
 42
-0.126406
  0
VERTEX
  8
0
 10
519.711901
 20
174.742876
 42
-0.030793
  0
VERTEX
  8
0
 10
519.960554
 20
171.126845
 42
-0.001773
  0
VERTEX
  8
0
 10
520.000000
 20
160.000000
 42
-0.001773
  0
VERTEX
  8
0
 10
519.960554
 20
148.873155
 42
-0.030793
  0
VERTEX
  8
0
 10
519.711901
 20
145.257124
 42
-0.126406
  0
VERTEX
  8
0
 10
519.044494
 20
143.594364
 42
-0.201810
  0
VERTEX
  8
0
 10
517.750000
 20
142.819551
 42
0.095732
  0
VERTEX
  8
0
 10
516.522228
 20
142.396315
 42
0.178332
  0
VERTEX
  8
0
 10
515.857065
 20
141.598539
 42
0.076880
  0
VERTEX
  8
0
 10
515.562441
 20
140.054816
 42
0.008782
  0
VERTEX
  8
0
 10
515.500000
 20
136.500000
 42
0.000000
  0
VERTEX
  8
0
 10
515.500000
 20
130.500000
 42
0.000000
  0
VERTEX
  8
0
 10
553.633306
 20
130.238228
 42
0.000000
  0
VERTEX
  8
0
 10
591.766612
 20
129.976457
 42
0.000000
  0
VERTEX
  8
0
 10
592.423224
 20
135.738228
 42
-0.001275
  0
VERTEX
  8
0
 10
592.716516
 20
138.254807
 42
-0.000924
  0
VERTEX
  8
0
 10
593.055460
 20
141.055917
 42
-0.000933
  0
VERTEX
  8
0
 10
593.387188
 20
143.714550
 42
-0.002040
  0
VERTEX
  8
0
 10
593.653462
 20
145.750000
 42
0.000000
  0
VERTEX
  8
0
 10
594.227088
 20
150.000000
 42
0.000000
  0
VERTEX
  8
0
 10
581.691096
 20
150.000000
 42
0.000000
  0
VERTEX
  8
0
 10
569.155104
 20
150.000000
 42
0.000000
  0
VERTEX
  8
0
 10
567.999852
 20
146.499550
 42
-0.077838
  0
VERTEX
  8
0
 10
566.743510
 20
144.051403
 42
-0.139353
  0
VERTEX
  8
0
 10
564.977073
 20
142.668034
 42
-0.091476
  0
VERTEX
  8
0
 10
562.200975
 20
142.090799
 42
-0.021448
  0
VERTEX
  8
0
 10
557.433729
 20
142.187705
 42
0.000000
  0
VERTEX
  8
0
 10
552.500000
 20
142.500000
 42
0.000000
  0
VERTEX
  8
0
 10
552.200096
 20
148.250000
 42
0.000000
  0
VERTEX
  8
0
 10
551.900192
 20
154.000000
 42
0.000000
  0
VERTEX
  8
0
 10
563.950096
 20
154.000000
 42
0.000000
  0
VERTEX
  8
0
 10
576.000000
 20
154.000000
 42
0.000000
  0
VERTEX
  8
0
 10
576.000000
 20
159.468265
 42
0.000000
  0
VERTEX
  8
0
 10
576.000000
 20
164.936529
 42
0.000000
  0
VERTEX
  8
0
 10
564.250000
 20
165.218265
 42
0.000000
  0
VERTEX
  8
0
 10
552.500000
 20
165.500000
 42
0.000000
  0
VERTEX
  8
0
 10
552.197740
 20
170.750000
 42
0.000000
  0
VERTEX
  8
0
 10
551.895481
 20
176.000000
 42
0.000000
  0
VERTEX
  8
0
 10
558.498767
 20
176.000000
 42
-0.008090
  0
VERTEX
  8
0
 10
562.820297
 20
175.930073
 42
-0.094544
  0
VERTEX
  8
0
 10
564.458890
 20
175.562124
 42
-0.158591
  0
VERTEX
  8
0
 10
565.486792
 20
174.653322
 42
-0.034132
  0
VERTEX
  8
0
 10
566.564447
 20
172.500000
 42
0.000000
  0
VERTEX
  8
0
 10
568.026840
 20
169.000000
 42
0.000000
  0
VERTEX
  8
0
 10
579.454403
 20
169.000000
 42
0.006139
  0
VERTEX
  8
0
 10
583.865061
 20
169.054157
 42
0.009665
  0
VERTEX
  8
0
 10
587.648667
 20
169.220313
 42
0.004188
  0
VERTEX
  8
0
 10
590.832195
 20
169.448620
 42
0.249954
  0
VERTEX
  8
0
 10
591.302554
 20
169.750000
 42
0.159015
  0
VERTEX
  8
0
 10
591.691258
 20
171.710833
 42
0.005932
  0
VERTEX
  8
0
 10
590.692296
 20
179.260492
 42
0.004959
  0
VERTEX
  8
0
 10
589.513195
 20
186.889829
 42
0.211142
  0
VERTEX
  8
0
 10
588.633195
 20
188.234687
 42
0.138919
  0
VERTEX
  8
0
 10
587.663457
 20
188.533740
 42
0.000687
  0
VERTEX
  8
0
 10
577.322094
 20
188.758058
 42
0.003052
  0
VERTEX
  8
0
 10
565.516729
 20
188.925819
 42
0.001919
  0
VERTEX
  8
0
 10
551.718615
 20
188.984687
 42
0.001306
  0
VERTEX
  8
0
 10
532.454391
 20
188.942618
 42
0.008231
  0
VERTEX
  8
0
 10
522.634223
 20
188.733845
 42
0.007740
  0
VERTEX
  8
0
 10
516.476389
 20
188.405952
 42
0.291812
  0
SEQEND
  0
POLYLINE
  8
0
 66
1
 70
1
  0
VERTEX
  8
0
 10
155.704584
 20
108.291923
 42
-0.000017
  0
VERTEX
  8
0
 10
151.511708
 20
102.388780
 42
-0.000013
  0
VERTEX
  8
0
 10
147.012031
 20
96.054502
 42
-0.000014
  0
VERTEX
  8
0
 10
142.861329
 20
90.212154
 42
-0.000035
  0
VERTEX
  8
0
 10
139.868180
 20
86.000000
 42
0.008578
  0
VERTEX
  8
0
 10
134.469272
 20
78.120604
 42
0.038335
  0
VERTEX
  8
0
 10
131.752457
 20
73.228425
 42
0.060204
  0
VERTEX
  8
0
 10
130.441164
 20
69.135361
 42
0.047480
  0
VERTEX
  8
0
 10
130.000000
 20
64.500000
 42
0.049265
  0
VERTEX
  8
0
 10
130.477909
 20
59.661368
 42
0.060613
  0
VERTEX
  8
0
 10
131.895414
 20
55.354773
 42
0.060629
  0
VERTEX
  8
0
 10
134.303892
 20
51.514608
 42
0.049327
  0
VERTEX
  8
0
 10
137.720978
 20
48.059395
 42
0.008542
  0
VERTEX
  8
0
 10
140.027144
 20
46.212397
 42
0.096176
  0
VERTEX
  8
0
 10
141.069608
 20
45.687522
 42
0.252210
  0
VERTEX
  8
0
 10
141.796921
 20
45.849734
 42
0.087004
  0
VERTEX
  8
0
 10
142.500000
 20
46.712669
 42
-0.073875
  0
VERTEX
  8
0
 10
146.059912
 20
51.322517
 42
-0.041551
  0
VERTEX
  8
0
 10
151.558496
 20
55.793411
 42
-0.054026
  0
VERTEX
  8
0
 10
156.401221
 20
58.386897
 42
-0.531631
  0
VERTEX
  8
0
 10
158.000000
 20
57.308223
 42
-0.089403
  0
VERTEX
  8
0
 10
157.873386
 20
56.605778
 42
-0.047136
  0
VERTEX
  8
0
 10
157.485938
 20
55.805474
 42
-0.044864
  0
VERTEX
  8
0
 10
156.919528
 20
55.036313
 42
-0.052062
  0
VERTEX
  8
0
 10
156.250000
 20
54.422072
 42
0.023956
  0
VERTEX
  8
0
 10
155.241042
 20
53.595714
 42
0.234649
  0
VERTEX
  8
0
 10
155.044888
 20
53.098417
 42
0.197738
  0
VERTEX
  8
0
 10
155.307644
 20
52.588361
 42
0.016791
  0
VERTEX
  8
0
 10
156.486725
 20
51.652148
 42
-0.021966
  0
VERTEX
  8
0
 10
157.669578
 20
50.692821
 42
-0.200906
  0
VERTEX
  8
0
 10
157.951015
 20
50.108575
 42
-0.181529
  0
VERTEX
  8
0
 10
157.747093
 20
49.464822
 42
-0.017413
  0
VERTEX
  8
0
 10
156.668428
 20
48.186111
 42
0.032608
  0
VERTEX
  8
0
 10
155.764155
 20
47.045588
 42
0.117943
  0
VERTEX
  8
0
 10
155.431104
 20
46.187865
 42
0.130431
  0
VERTEX
  8
0
 10
155.538876
 20
45.321961
 42
0.043784
  0
VERTEX
  8
0
 10
156.121539
 20
44.176993
 42
-0.034563
  0
VERTEX
  8
0
 10
156.704924
 20
43.081010
 42
-0.105478
  0
VERTEX
  8
0
 10
156.879547
 20
42.261203
 42
-0.120895
  0
VERTEX
  8
0
 10
156.694401
 20
41.507674
 42
-0.052841
  0
VERTEX
  8
0
 10
156.120442
 20
40.645124
 42
0.063811
  0
VERTEX
  8
0
 10
155.624512
 20
39.863296
 42
0.085352
  0
VERTEX
  8
0
 10
155.402842
 20
39.054596
 42
0.083930
  0
VERTEX
  8
0
 10
155.462399
 20
38.207886
 42
0.059552
  0
VERTEX
  8
0
 10
155.795479
 20
37.313922
 42
-0.043196
  0
VERTEX
  8
0
 10
156.119079
 20
36.525061
 42
-0.037724
  0
VERTEX
  8
0
 10
156.320352
 20
35.655776
 42
-0.039571
  0
VERTEX
  8
0
 10
156.380169
 20
34.837993
 42
-0.084605
  0
VERTEX
  8
0
 10
156.270332
 20
34.216378
 42
0.196256
  0
VERTEX
  8
0
 10
156.350111
 20
32.399726
 42
0.174538
  0
VERTEX
  8
0
 10
157.682585
 20
31.044867
 42
0.086103
  0
VERTEX
  8
0
 10
160.535455
 20
30.235769
 42
0.026148
  0
VERTEX
  8
0
 10
165.040657
 20
30.000000
 42
0.011683
  0
VERTEX
  8
0
 10
170.594090
 20
30.129778
 42
0.081962
  0
VERTEX
  8
0
 10
173.233244
 20
30.693088
 42
0.186329
  0
VERTEX
  8
0
 10
174.524786
 20
31.877789
 42
0.115531
  0
VERTEX
  8
0
 10
175.000000
 20
33.906989
 42
-0.040740
  0
VERTEX
  8
0
 10
175.091586
 20
35.029140
 42
-0.035716
  0
VERTEX
  8
0
 10
175.364732
 20
36.173660
 42
-0.037410
  0
VERTEX
  8
0
 10
175.764982
 20
37.174420
 42
-0.082726
  0
VERTEX
  8
0
 10
176.241641
 20
37.841641
 42
0.037373
  0
VERTEX
  8
0
 10
176.818436
 20
38.511769
 42
0.169434
  0
VERTEX
  8
0
 10
176.968641
 20
38.996838
 42
0.195795
  0
VERTEX
  8
0
 10
176.775469
 20
39.426997
 42
0.052158
  0
VERTEX
  8
0
 10
176.168930
 20
39.895596
 42
-0.134236
  0
VERTEX
  8
0
 10
175.619128
 20
40.485358
 42
-0.085965
  0
VERTEX
  8
0
 10
175.329961
 20
41.382019
 42
-0.058215
  0
VERTEX
  8
0
 10
175.299506
 20
42.642526
 42
-0.023330
  0
VERTEX
  8
0
 10
175.538580
 20
44.353955
 42
0.019356
  0
VERTEX
  8
0
 10
175.776216
 20
45.961778
 42
0.056232
  0
VERTEX
  8
0
 10
175.771375
 20
47.083648
 42
0.105400
  0
VERTEX
  8
0
 10
175.544324
 20
47.753759
 42
0.264439
  0
VERTEX
  8
0
 10
175.111291
 20
48.000000
 42
-0.230097
  0
VERTEX
  8
0
 10
174.310453
 20
48.389143
 42
-0.200613
  0
VERTEX
  8
0
 10
174.059660
 20
49.294672
 42
-0.103619
  0
VERTEX
  8
0
 10
174.528912
 20
50.654510
 42
-0.049235
  0
VERTEX
  8
0
 10
175.636119
 20
52.150410
 42
0.013640
  0
VERTEX
  8
0
 10
176.590247
 20
53.264328
 42
0.171916
  0
VERTEX
  8
0
 10
176.772239
 20
53.777989
 42
0.272937
  0
VERTEX
  8
0
 10
176.545204
 20
54.162917
 42
0.034664
  0
VERTEX
  8
0
 10
175.636119
 20
54.586140
 42
-0.093521
  0
VERTEX
  8
0
 10
175.010597
 20
54.972156
 42
-0.066801
  0
VERTEX
  8
0
 10
174.480610
 20
55.603956
 42
-0.064863
  0
VERTEX
  8
0
 10
174.122303
 20
56.374947
 42
-0.076523
  0
VERTEX
  8
0
 10
174.000000
 20
57.169401
 42
-0.111463
  0
VERTEX
  8
0
 10
174.215388
 20
58.123589
 42
-0.334351
  0
VERTEX
  8
0
 10
174.772124
 20
58.414456
 42
-0.078457
  0
VERTEX
  8
0
 10
175.955857
 20
58.021552
 42
-0.005036
  0
VERTEX
  8
0
 10
179.182328
 20
56.312412
 42
-0.029143
  0
VERTEX
  8
0
 10
181.354574
 20
54.964147
 42
-0.021503
  0
VERTEX
  8
0
 10
183.596601
 20
53.235732
 42
-0.021871
  0
VERTEX
  8
0
 10
185.580036
 20
51.411954
 42
-0.044638
  0
VERTEX
  8
0
 10
186.932328
 20
49.787951
 42
0.020675
  0
VERTEX
  8
0
 10
188.007094
 20
48.363808
 42
0.026670
  0
VERTEX
  8
0
 10
189.113260
 20
47.155169
 42
0.026309
  0
VERTEX
  8
0
 10
190.113694
 20
46.271141
 42
0.161578
  0
VERTEX
  8
0
 10
190.751111
 20
46.037951
 42
0.201535
  0
VERTEX
  8
0
 10
192.800768
 20
46.826853
 42
0.023056
  0
VERTEX
  8
0
 10
196.283513
 20
50.494587
 42
0.027959
  0
VERTEX
  8
0
 10
199.468912
 20
54.619973
 42
0.082862
  0
VERTEX
  8
0
 10
200.975262
 20
57.850838
 42
0.038783
  0
VERTEX
  8
0
 10
201.779372
 20
61.956578
 42
0.041341
  0
VERTEX
  8
0
 10
201.915469
 20
66.049417
 42
0.044055
  0
VERTEX
  8
0
 10
201.391237
 20
69.839422
 42
0.062194
  0
VERTEX
  8
0
 10
200.224449
 20
73.038558
 42
0.033148
  0
VERTEX
  8
0
 10
197.447708
 20
77.668476
 42
0.000994
  0
VERTEX
  8
0
 10
184.561868
 20
96.164819
 42
0.001248
  0
VERTEX
  8
0
 10
171.826815
 20
114.271106
 42
0.024635
  0
VERTEX
  8
0
 10
167.634740
 20
119.620157
 42
0.000000
  0
VERTEX
  8
0
 10
165.500000
 20
122.083845
 42
0.000000
  0
SEQEND
  0
POLYLINE
  8
0
 66
1
 70
1
  0
VERTEX
  8
0
 10
174.916667
 20
103.412948
 42
-0.442673
  0
VERTEX
  8
0
 10
174.896191
 20
102.943691
 42
-0.151612
  0
VERTEX
  8
0
 10
174.185351
 20
102.649193
 42
-0.033121
  0
VERTEX
  8
0
 10
172.210334
 20
102.598584
 42
-0.004979
  0
VERTEX
  8
0
 10
168.250000
 20
102.798974
 42
-0.014399
  0
VERTEX
  8
0
 10
165.854151
 20
103.013514
 42
-0.023295
  0
VERTEX
  8
0
 10
163.835938
 20
103.348919
 42
-0.019627
  0
VERTEX
  8
0
 10
162.295336
 20
103.743143
 42
-0.331676
  0
VERTEX
  8
0
 10
162.000000
 20
104.139383
 42
-0.423651
  0
VERTEX
  8
0
 10
162.596703
 20
104.717225
 42
-0.006017
  0
VERTEX
  8
0
 10
168.095840
 20
104.474295
 42
-0.008325
  0
VERTEX
  8
0
 10
173.478522
 20
104.081579
 42
-0.174602
  0
SEQEND
  0
POLYLINE
  8
0
 66
1
 70
1
  0
VERTEX
  8
0
 10
166.868879
 20
99.657991
 42
-0.050768
  0
VERTEX
  8
0
 10
167.246292
 20
99.095866
 42
-0.066538
  0
VERTEX
  8
0
 10
167.462194
 20
98.516912
 42
-0.082297
  0
VERTEX
  8
0
 10
167.492554
 20
98.010146
 42
-0.171918
  0
VERTEX
  8
0
 10
167.324657
 20
97.657991
 42
-0.094692
  0
VERTEX
  8
0
 10
166.501876
 20
97.099219
 42
-0.224144
  0
VERTEX
  8
0
 10
165.779240
 20
97.123250
 42
-0.162897
  0
VERTEX
  8
0
 10
165.173499
 20
97.743459
 42
-0.048754
  0
VERTEX
  8
0
 10
164.710251
 20
99.000000
 42
-0.062656
  0
VERTEX
  8
0
 10
164.531583
 20
100.359951
 42
-0.331502
  0
VERTEX
  8
0
 10
164.950369
 20
100.928666
 42
-0.251938
  0
VERTEX
  8
0
 10
165.758593
 20
100.766738
 42
-0.046718
  0
SEQEND
  0
POLYLINE
  8
0
 66
1
 70
1
  0
VERTEX
  8
0
 10
161.212121
 20
97.863636
 42
0.291685
  0
VERTEX
  8
0
 10
162.403275
 20
96.897587
 42
0.034796
  0
VERTEX
  8
0
 10
165.956735
 20
96.740283
 42
0.035850
  0
VERTEX
  8
0
 10
169.553044
 20
97.090205
 42
0.213825
  0
VERTEX
  8
0
 10
171.081666
 20
98.113636
 42
-0.189430
  0
VERTEX
  8
0
 10
171.808547
 20
98.651282
 42
-0.123882
  0
VERTEX
  8
0
 10
172.863763
 20
98.668084
 42
-0.052867
  0
VERTEX
  8
0
 10
174.542318
 20
98.081444
 42
-0.009407
  0
VERTEX
  8
0
 10
177.525766
 20
96.600806
 42
-0.013011
  0
VERTEX
  8
0
 10
180.024514
 20
95.217820
 42
-0.045976
  0
VERTEX
  8
0
 10
181.512286
 20
94.148003
 42
-0.097181
  0
VERTEX
  8
0
 10
182.164770
 20
93.310305
 42
-0.324021
  0
VERTEX
  8
0
 10
182.060819
 20
92.660819
 42
-0.147883
  0
VERTEX
  8
0
 10
181.380977
 20
92.296661
 42
-0.083430
  0
VERTEX
  8
0
 10
180.437968
 20
92.266806
 42
-0.055531
  0
VERTEX
  8
0
 10
179.187553
 20
92.580467
 42
-0.022066
  0
VERTEX
  8
0
 10
177.556026
 20
93.271892
 42
0.004855
  0
VERTEX
  8
0
 10
175.369170
 20
94.288787
 42
0.112169
  0
VERTEX
  8
0
 10
174.699454
 20
94.426042
 42
0.461029
  0
VERTEX
  8
0
 10
174.474835
 20
94.151416
 42
0.045026
  0
VERTEX
  8
0
 10
174.733244
 20
93.211879
 42
-0.012537
  0
VERTEX
  8
0
 10
175.082707
 20
92.202568
 42
-0.455458
  0
VERTEX
  8
0
 10
174.969359
 20
92.016242
 42
-0.208333
  0
VERTEX
  8
0
 10
174.656871
 20
92.093138
 42
-0.005395
  0
VERTEX
  8
0
 10
173.495272
 20
93.000000
 42
0.009123
  0
VERTEX
  8
0
 10
172.627901
 20
93.666809
 42
0.121083
  0
VERTEX
  8
0
 10
172.258640
 20
93.821266
 42
0.582335
  0
VERTEX
  8
0
 10
172.156213
 20
93.692329
 42
0.039626
  0
VERTEX
  8
0
 10
172.417352
 20
93.168623
 42
-0.080410
  0
VERTEX
  8
0
 10
172.661031
 20
92.560815
 42
-0.315099
  0
VERTEX
  8
0
 10
172.515736
 20
92.207028
 42
-0.155569
  0
VERTEX
  8
0
 10
171.981545
 20
92.063807
 42
-0.023211
  0
VERTEX
  8
0
 10
170.859311
 20
92.168623
 42
0.034743
  0
VERTEX
  8
0
 10
169.662808
 20
92.252616
 42
0.172649
  0
VERTEX
  8
0
 10
169.037455
 20
92.030489
 42
0.209789
  0
VERTEX
  8
0
 10
168.763068
 20
91.495613
 42
0.053529
  0
VERTEX
  8
0
 10
168.809448
 20
90.500000
 42
-0.001166
  0
VERTEX
  8
0
 10
168.947372
 20
89.594614
 42
-0.000705
  0
VERTEX
  8
0
 10
169.106723
 20
88.521623
 42
-0.000706
  0
VERTEX
  8
0
 10
169.261967
 20
87.455598
 42
-0.001241
  0
VERTEX
  8
0
 10
169.386906
 20
86.573610
 42
0.080832
  0
VERTEX
  8
0
 10
169.631744
 20
85.780857
 42
0.056167
  0
VERTEX
  8
0
 10
170.140935
 20
84.991808
 42
0.055464
  0
VERTEX
  8
0
 10
170.822193
 20
84.324990
 42
0.072733
  0
VERTEX
  8
0
 10
171.577458
 20
83.893896
 42
-0.017863
  0
VERTEX
  8
0
 10
172.258986
 20
83.598352
 42
-0.063410
  0
VERTEX
  8
0
 10
172.658796
 20
83.341213
 42
-0.319585
  0
VERTEX
  8
0
 10
172.701529
 20
83.176572
 42
-0.290683
  0
VERTEX
  8
0
 10
172.558870
 20
83.070285
 42
0.361662
  0
VERTEX
  8
0
 10
172.388906
 20
82.905939
 42
0.172819
  0
VERTEX
  8
0
 10
172.464404
 20
82.589364
 42
0.062696
  0
VERTEX
  8
0
 10
172.876652
 20
82.101508
 42
0.024108
  0
VERTEX
  8
0
 10
173.558870
 20
81.531803
 42
-0.024706
  0
VERTEX
  8
0
 10
174.237813
 20
80.963455
 42
-0.067265
  0
VERTEX
  8
0
 10
174.636043
 20
80.481049
 42
-0.196301
  0
VERTEX
  8
0
 10
174.688047
 20
80.174609
 42
-0.338102
  0
VERTEX
  8
0
 10
174.500000
 20
80.016491
 42
0.210387
  0
VERTEX
  8
0
 10
174.265400
 20
79.899730
 42
0.287065
  0
VERTEX
  8
0
 10
174.234375
 20
79.671599
 42
0.101827
  0
VERTEX
  8
0
 10
174.488596
 20
79.320635
 42
0.031363
  0
VERTEX
  8
0
 10
175.000000
 20
78.908556
 42
-0.022744
  0
VERTEX
  8
0
 10
175.757649
 20
78.319289
 42
-0.197319
  0
VERTEX
  8
0
 10
175.948926
 20
77.947034
 42
-0.282755
  0
VERTEX
  8
0
 10
175.790643
 20
77.632403
 42
-0.043347
  0
VERTEX
  8
0
 10
175.136847
 20
77.302818
 42
0.047644
  0
VERTEX
  8
0
 10
174.595429
 20
77.024036
 42
0.194046
  0
VERTEX
  8
0
 10
174.385427
 20
76.727845
 42
0.244594
  0
VERTEX
  8
0
 10
174.463453
 20
76.417545
 42
0.072905
  0
VERTEX
  8
0
 10
174.849248
 20
76.093170
 42
-0.146021
  0
VERTEX
  8
0
 10
175.219049
 20
75.677635
 42
-0.066296
  0
VERTEX
  8
0
 10
175.439631
 20
74.976582
 42
-0.057400
  0
VERTEX
  8
0
 10
175.489313
 20
74.117447
 42
-0.049758
  0
VERTEX
  8
0
 10
175.348710
 20
73.225468
 42
-0.051186
  0
VERTEX
  8
0
 10
175.050888
 20
72.429556
 42
-0.087943
  0
VERTEX
  8
0
 10
174.631573
 20
71.861377
 42
-0.129861
  0
VERTEX
  8
0
 10
174.164113
 20
71.605207
 42
-0.201827
  0
VERTEX
  8
0
 10
173.716371
 20
71.675292
 42
0.094607
  0
VERTEX
  8
0
 10
173.324798
 20
71.824886
 42
0.358364
  0
VERTEX
  8
0
 10
173.112526
 20
71.705608
 42
0.157262
  0
VERTEX
  8
0
 10
173.090004
 20
71.322165
 42
0.028285
  0
VERTEX
  8
0
 10
173.310961
 20
70.632032
 42
-0.367421
  0
VERTEX
  8
0
 10
172.501408
 20
68.327428
 42
-0.101322
  0
VERTEX
  8
0
 10
168.568218
 20
66.994212
 42
-0.075455
  0
VERTEX
  8
0
 10
163.467072
 20
67.125692
 42
-0.144399
  0
VERTEX
  8
0
 10
159.833508
 20
68.940484
 42
-0.016136
  0
VERTEX
  8
0
 10
159.037235
 20
69.731827
 42
-0.035662
  0
VERTEX
  8
0
 10
158.495497
 20
70.395017
 42
-0.069367
  0
VERTEX
  8
0
 10
158.267741
 20
70.837741
 42
-0.516620
  0
VERTEX
  8
0
 10
158.382867
 20
71.000000
 42
0.401867
  0
VERTEX
  8
0
 10
158.528955
 20
71.140030
 42
0.130482
  0
VERTEX
  8
0
 10
158.458003
 20
71.461607
 42
0.054419
  0
VERTEX
  8
0
 10
158.122765
 20
71.967323
 42
0.022823
  0
VERTEX
  8
0
 10
157.571429
 20
72.571429
 42
-0.043903
  0
VERTEX
  8
0
 10
156.464107
 20
73.892376
 42
-0.129933
  0
VERTEX
  8
0
 10
156.060023
 20
74.994297
 42
-0.256922
  0
VERTEX
  8
0
 10
156.370612
 20
75.709091
 42
-0.162837
  0
VERTEX
  8
0
 10
157.250000
 20
76.015313
 42
0.035452
  0
VERTEX
  8
0
 10
157.798858
 20
76.061042
 42
0.403633
  0
VERTEX
  8
0
 10
157.918607
 20
76.218718
 42
0.208861
  0
VERTEX
  8
0
 10
157.778013
 20
76.458925
 42
0.016162
  0
VERTEX
  8
0
 10
157.146755
 20
76.888139
 42
-0.080054
  0
VERTEX
  8
0
 10
156.551552
 20
77.415014
 42
-0.152041
  0
VERTEX
  8
0
 10
156.313717
 20
78.002478
 42
-0.111475
  0
VERTEX
  8
0
 10
156.418707
 20
78.752252
 42
-0.032572
  0
VERTEX
  8
0
 10
156.903192
 20
79.819112
 42
-0.027734
  0
VERTEX
  8
0
 10
157.666947
 20
81.073680
 42
-0.273425
  0
VERTEX
  8
0
 10
158.205431
 20
81.323704
 42
-0.155003
  0
VERTEX
  8
0
 10
158.884138
 20
81.031398
 42
-0.008295
  0
VERTEX
  8
0
 10
160.652459
 20
79.446286
 42
0.021407
  0
VERTEX
  8
0
 10
161.753917
 20
78.509843
 42
0.024778
  0
VERTEX
  8
0
 10
162.880614
 20
77.718596
 42
0.024933
  0
VERTEX
  8
0
 10
163.887273
 20
77.151744
 42
0.116268
  0
VERTEX
  8
0
 10
164.531013
 20
77.000000
 42
-0.206220
  0
VERTEX
  8
0
 10
165.861594
 20
76.426841
 42
-0.047988
  0
VERTEX
  8
0
 10
167.390020
 20
74.463241
 42
-0.048456
  0
VERTEX
  8
0
 10
168.603478
 20
72.066556
 42
-0.093230
  0
VERTEX
  8
0
 10
169.000000
 20
69.958458
 42
0.049723
  0
VERTEX
  8
0
 10
169.103800
 20
68.917264
 42
0.470031
  0
VERTEX
  8
0
 10
169.449043
 20
68.731652
 42
0.115771
  0
VERTEX
  8
0
 10
170.081247
 20
69.179175
 42
0.006195
  0
VERTEX
  8
0
 10
171.698398
 20
71.053413
 42
0.000000
  0
VERTEX
  8
0
 10
174.396795
 20
74.260276
 42
0.000000
  0
VERTEX
  8
0
 10
172.087614
 20
76.130138
 42
0.042278
  0
VERTEX
  8
0
 10
171.032577
 20
76.845983
 42
0.032141
  0
VERTEX
  8
0
 10
169.772258
 20
77.450728
 42
0.032925
  0
VERTEX
  8
0
 10
168.507324
 20
77.866127
 42
0.062952
  0
VERTEX
  8
0
 10
167.448233
 20
78.000000
 42
-0.039360
  0
VERTEX
  8
0
 10
166.510965
 20
78.073896
 42
-0.042438
  0
VERTEX
  8
0
 10
165.620982
 20
78.293750
 42
-0.046565
  0
VERTEX
  8
0
 10
164.900147
 20
78.615717
 42
-0.126694
  0
VERTEX
  8
0
 10
164.500000
 20
79.000000
 42
-0.110513
  0
VERTEX
  8
0
 10
164.368106
 20
79.380783
 42
-0.183088
  0
VERTEX
  8
0
 10
164.450814
 20
79.706250
 42
-0.159963
  0
VERTEX
  8
0
 10
164.742974
 20
79.924931
 42
-0.081505
  0
VERTEX
  8
0
 10
165.200436
 20
80.000000
 42
0.117511
  0
VERTEX
  8
0
 10
165.795035
 20
80.141700
 42
0.048510
  0
VERTEX
  8
0
 10
166.498506
 20
80.587500
 42
0.044447
  0
VERTEX
  8
0
 10
167.192503
 20
81.234831
 42
0.043300
  0
VERTEX
  8
0
 10
167.767927
 20
82.000000
 42
0.016563
  0
VERTEX
  8
0
 10
168.403736
 20
83.097383
 42
0.156511
  0
VERTEX
  8
0
 10
168.500662
 20
83.625540
 42
0.310659
  0
VERTEX
  8
0
 10
168.243072
 20
83.912554
 42
0.059310
  0
VERTEX
  8
0
 10
167.508474
 20
84.000000
 42
-0.064471
  0
VERTEX
  8
0
 10
166.931764
 20
84.074672
 42
-0.082154
  0
VERTEX
  8
0
 10
166.443114
 20
84.293750
 42
-0.098773
  0
VERTEX
  8
0
 10
166.116210
 20
84.618643
 42
-0.148982
  0
VERTEX
  8
0
 10
166.000000
 20
85.000000
 42
-0.148195
  0
VERTEX
  8
0
 10
166.115568
 20
85.381354
 42
-0.098894
  0
VERTEX
  8
0
 10
166.440625
 20
85.706250
 42
-0.082425
  0
VERTEX
  8
0
 10
166.926543
 20
85.925306
 42
-0.064853
  0
VERTEX
  8
0
 10
167.500000
 20
86.000000
 42
0.060227
  0
VERTEX
  8
0
 10
168.073621
 20
86.069347
 42
0.078972
  0
VERTEX
  8
0
 10
168.559375
 20
86.273711
 42
0.097102
  0
VERTEX
  8
0
 10
168.884638
 20
86.576390
 42
0.158239
  0
VERTEX
  8
0
 10
169.000000
 20
86.931780
 42
0.369259
  0
VERTEX
  8
0
 10
168.502348
 20
87.513752
 42
0.052102
  0
VERTEX
  8
0
 10
166.798279
 20
87.602059
 42
0.048547
  0
VERTEX
  8
0
 10
164.799428
 20
87.301285
 42
0.076952
  0
VERTEX
  8
0
 10
163.207698
 20
86.628365
 42
-0.086649
  0
VERTEX
  8
0
 10
162.388411
 20
86.300458
 42
-0.462699
  0
VERTEX
  8
0
 10
162.055581
 20
86.558175
 42
-0.119762
  0
VERTEX
  8
0
 10
162.226394
 20
87.431246
 42
-0.014952
  0
VERTEX
  8
0
 10
163.092641
 20
89.173101
 42
0.036435
  0
VERTEX
  8
0
 10
163.543803
 20
90.187302
 42
0.086646
  0
VERTEX
  8
0
 10
163.685281
 20
90.997589
 42
0.110523
  0
VERTEX
  8
0
 10
163.532008
 20
91.682522
 42
0.086488
  0
VERTEX
  8
0
 10
163.092641
 20
92.307359
 42
0.026490
  0
VERTEX
  8
0
 10
162.566158
 20
92.780828
 42
0.196836
  0
VERTEX
  8
0
 10
162.250000
 20
92.875436
 42
0.322007
  0
VERTEX
  8
0
 10
162.057665
 20
92.706408
 42
0.056752
  0
VERTEX
  8
0
 10
162.000000
 20
92.200000
 42
-0.081935
  0
VERTEX
  8
0
 10
161.924388
 20
91.741680
 42
-0.092192
  0
VERTEX
  8
0
 10
161.706250
 20
91.352500
 42
-0.100665
  0
VERTEX
  8
0
 10
161.381414
 20
91.092278
 42
-0.119248
  0
VERTEX
  8
0
 10
161.000000
 20
91.000000
 42
-0.159372
  0
VERTEX
  8
0
 10
160.618582
 20
91.124743
 42
-0.096868
  0
VERTEX
  8
0
 10
160.293750
 20
91.476593
 42
-0.078585
  0
VERTEX
  8
0
 10
160.074395
 20
92.001980
 42
-0.059737
  0
VERTEX
  8
0
 10
160.000000
 20
92.622445
 42
0.035149
  0
VERTEX
  8
0
 10
159.942382
 20
93.441049
 42
0.309069
  0
VERTEX
  8
0
 10
159.710090
 20
93.695425
 42
0.214668
  0
VERTEX
  8
0
 10
159.307873
 20
93.617368
 42
0.019533
  0
VERTEX
  8
0
 10
158.477108
 20
92.981001
 42
-0.009153
  0
VERTEX
  8
0
 10
157.612209
 20
92.289538
 42
-0.300271
  0
VERTEX
  8
0
 10
157.357997
 20
92.271023
 42
-0.360098
  0
VERTEX
  8
0
 10
157.274229
 20
92.487764
 42
-0.010982
  0
VERTEX
  8
0
 10
157.622877
 20
93.459617
 42
0.034240
  0
VERTEX
  8
0
 10
157.925225
 20
94.444150
 42
0.470359
  0
VERTEX
  8
0
 10
157.727153
 20
94.704806
 42
0.125543
  0
VERTEX
  8
0
 10
157.135970
 20
94.579973
 42
0.004842
  0
VERTEX
  8
0
 10
155.123471
 20
93.563849
 42
-0.028558
  0
VERTEX
  8
0
 10
153.612915
 20
92.889006
 42
-0.054228
  0
VERTEX
  8
0
 10
152.325551
 20
92.553838
 42
-0.069012
  0
VERTEX
  8
0
 10
151.229631
 20
92.544476
 42
-0.095525
  0
VERTEX
  8
0
 10
150.298760
 20
92.852682
 42
-0.175772
  0
VERTEX
  8
0
 10
149.779194
 20
93.453987
 42
-0.286942
  0
VERTEX
  8
0
 10
149.905030
 20
94.093605
 42
-0.075554
  0
VERTEX
  8
0
 10
150.961190
 20
94.924953
 42
-0.009108
  0
VERTEX
  8
0
 10
153.571059
 20
96.343331
 42
-0.010860
  0
VERTEX
  8
0
 10
157.190907
 20
98.127226
 42
-0.060011
  0
VERTEX
  8
0
 10
159.251803
 20
98.801685
 42
-0.153368
  0
VERTEX
  8
0
 10
160.476653
 20
98.668930
 42
-0.212285
  0
SEQEND
  0
POLYLINE
  8
0
 66
1
 70
1
  0
VERTEX
  8
0
 10
189.000000
 20
83.976167
 42
-0.094277
  0
VERTEX
  8
0
 10
188.845507
 20
83.164092
 42
-0.057499
  0
VERTEX
  8
0
 10
188.383894
 20
82.300466
 42
-0.054864
  0
VERTEX
  8
0
 10
187.704757
 20
81.518852
 42
-0.063691
  0
VERTEX
  8
0
 10
186.902618
 20
80.947883
 42
-0.076511
  0
VERTEX
  8
0
 10
185.631824
 20
80.500254
 42
-0.091952
  0
VERTEX
  8
0
 10
184.366545
 20
80.497017
 42
-0.060439
  0
VERTEX
  8
0
 10
182.804569
 20
80.982866
 42
-0.016365
  0
VERTEX
  8
0
 10
180.473733
 20
82.123256
 42
-0.018892
  0
VERTEX
  8
0
 10
178.850570
 20
83.064567
 42
-0.031229
  0
VERTEX
  8
0
 10
177.566745
 20
83.992281
 42
-0.033080
  0
VERTEX
  8
0
 10
176.705281
 20
84.801794
 42
-0.338039
  0
VERTEX
  8
0
 10
176.660142
 20
85.259115
 42
-0.201868
  0
VERTEX
  8
0
 10
176.973376
 20
85.482188
 42
-0.104267
  0
VERTEX
  8
0
 10
177.462780
 20
85.488391
 42
-0.075619
  0
VERTEX
  8
0
 10
178.057895
 20
85.273810
 42
-0.048967
  0
VERTEX
  8
0
 10
178.665243
 20
84.862860
 42
0.037796
  0
VERTEX
  8
0
 10
179.467351
 20
84.293651
 42
0.157662
  0
VERTEX
  8
0
 10
180.037045
 20
84.160945
 42
0.180212
  0
VERTEX
  8
0
 10
180.530735
 20
84.393657
 42
0.052434
  0
VERTEX
  8
0
 10
181.060903
 20
85.064302
 42
-0.026363
  0
VERTEX
  8
0
 10
181.444674
 20
85.605423
 42
-0.158746
  0
VERTEX
  8
0
 10
181.728055
 20
85.793661
 42
-0.388030
  0
VERTEX
  8
0
 10
181.912919
 20
85.700030
 42
-0.087395
  0
VERTEX
  8
0
 10
181.984687
 20
85.321429
 42
0.095124
  0
VERTEX
  8
0
 10
182.100470
 20
84.757979
 42
0.033741
  0
VERTEX
  8
0
 10
182.467248
 20
84.017316
 42
0.032029
  0
VERTEX
  8
0
 10
182.990239
 20
83.238400
 42
0.032528
  0
VERTEX
  8
0
 10
183.605946
 20
82.536911
 42
0.145742
  0
VERTEX
  8
0
 10
185.147835
 20
81.702661
 42
0.210065
  0
VERTEX
  8
0
 10
186.644670
 20
82.017953
 42
0.190991
  0
VERTEX
  8
0
 10
187.522143
 20
83.381984
 42
0.126047
  0
VERTEX
  8
0
 10
187.415444
 20
85.266412
 42
-0.024425
  0
VERTEX
  8
0
 10
187.189979
 20
86.119131
 42
-0.141345
  0
VERTEX
  8
0
 10
187.222770
 20
86.579043
 42
-0.353315
  0
VERTEX
  8
0
 10
187.461541
 20
86.722019
 42
-0.103836
  0
VERTEX
  8
0
 10
187.892866
 20
86.566212
 42
-0.101753
  0
VERTEX
  8
0
 10
188.317122
 20
86.165888
 42
-0.051961
  0
VERTEX
  8
0
 10
188.674779
 20
85.523135
 42
-0.048575
  0
VERTEX
  8
0
 10
188.917901
 20
84.755918
 42
-0.052499
  0
SEQEND
  0
POLYLINE
  8
0
 66
1
 70
1
  0
VERTEX
  8
0
 10
155.958492
 20
82.922441
 42
-0.056115
  0
VERTEX
  8
0
 10
155.401031
 20
82.113707
 42
-0.083873
  0
VERTEX
  8
0
 10
154.739238
 20
81.569925
 42
-0.100850
  0
VERTEX
  8
0
 10
154.032872
 20
81.336277
 42
-0.121805
  0
VERTEX
  8
0
 10
153.341520
 20
81.422441
 42
0.020335
  0
VERTEX
  8
0
 10
152.679792
 20
81.645957
 42
0.015242
  0
VERTEX
  8
0
 10
151.935384
 20
81.839684
 42
0.015472
  0
VERTEX
  8
0
 10
151.222408
 20
81.979150
 42
0.033766
  0
VERTEX
  8
0
 10
150.668213
 20
82.031803
 42
-0.603219
  0
VERTEX
  8
0
 10
150.421527
 20
82.532203
 42
-0.091764
  0
VERTEX
  8
0
 10
151.476657
 20
83.535510
 42
-0.041663
  0
VERTEX
  8
0
 10
153.546900
 20
84.650239
 42
-0.103027
  0
VERTEX
  8
0
 10
155.226313
 20
85.000000
 42
-0.042798
  0
VERTEX
  8
0
 10
156.173712
 20
84.918758
 42
-0.271618
  0
VERTEX
  8
0
 10
156.528401
 20
84.619081
 42
-0.188371
  0
VERTEX
  8
0
 10
156.509901
 20
84.067855
 42
-0.021371
  0
SEQEND
  0
POLYLINE
  8
0
 66
1
 70
1
  0
VERTEX
  8
0
 10
152.098844
 20
76.759979
 42
-0.044920
  0
VERTEX
  8
0
 10
151.247805
 20
75.012055
 42
-0.069628
  0
VERTEX
  8
0
 10
150.191787
 20
73.711265
 42
-0.107466
  0
VERTEX
  8
0
 10
149.169221
 20
73.104212
 42
-0.284047
  0
VERTEX
  8
0
 10
148.374888
 20
73.291779
 42
-0.245317
  0
VERTEX
  8
0
 10
148.257206
 20
73.666542
 42
-0.018139
  0
VERTEX
  8
0
 10
148.491952
 20
74.751173
 42
-0.021920
  0
VERTEX
  8
0
 10
148.894080
 20
76.082920
 42
-0.014675
  0
VERTEX
  8
0
 10
149.464369
 20
77.568965
 42
-0.053012
  0
VERTEX
  8
0
 10
150.814972
 20
80.031249
 42
-0.326155
  0
VERTEX
  8
0
 10
152.102661
 20
80.476082
 42
-0.368811
  0
VERTEX
  8
0
 10
152.780695
 20
79.409334
 42
-0.055769
  0
SEQEND
  0
POLYLINE
  8
0
 66
1
 70
1
  0
VERTEX
  8
0
 10
180.825000
 20
78.892815
 42
-0.068264
  0
VERTEX
  8
0
 10
181.154046
 20
77.498340
 42
-0.463628
  0
VERTEX
  8
0
 10
180.721451
 20
77.054749
 42
-0.158212
  0
VERTEX
  8
0
 10
179.667098
 20
77.480932
 42
-0.021864
  0
VERTEX
  8
0
 10
177.901280
 20
79.098720
 42
0.000000
  0
VERTEX
  8
0
 10
175.802559
 20
81.197441
 42
0.000000
  0
VERTEX
  8
0
 10
178.151280
 20
80.466536
 42
-0.026470
  0
VERTEX
  8
0
 10
179.074214
 20
80.124796
 42
-0.031119
  0
VERTEX
  8
0
 10
179.905532
 20
79.702757
 42
-0.032603
  0
VERTEX
  8
0
 10
180.548507
 20
79.265541
 42
-0.135928
  0
SEQEND
  0
POLYLINE
  8
0
 66
1
 70
1
  0
VERTEX
  8
0
 10
154.403399
 20
69.528865
 42
0.062569
  0
VERTEX
  8
0
 10
154.804917
 20
68.496357
 42
0.042163
  0
VERTEX
  8
0
 10
155.498896
 20
67.437421
 42
0.042206
  0
VERTEX
  8
0
 10
156.359401
 20
66.511446
 42
0.063332
  0
VERTEX
  8
0
 10
157.261807
 20
65.879161
 42
-0.021743
  0
VERTEX
  8
0
 10
158.173681
 20
65.347134
 42
-0.019977
  0
VERTEX
  8
0
 10
159.062843
 20
64.723585
 42
-0.020432
  0
VERTEX
  8
0
 10
159.810489
 20
64.103517
 42
-0.059885
  0
VERTEX
  8
0
 10
160.250000
 20
63.600296
 42
0.055733
  0
VERTEX
  8
0
 10
160.642569
 20
63.143242
 42
0.191959
  0
VERTEX
  8
0
 10
161.000000
 20
63.004404
 42
0.190062
  0
VERTEX
  8
0
 10
161.357370
 20
63.148990
 42
0.054541
  0
VERTEX
  8
0
 10
161.750000
 20
63.613508
 42
-0.130362
  0
VERTEX
  8
0
 10
162.187989
 20
63.996712
 42
-0.078005
  0
VERTEX
  8
0
 10
162.852166
 20
64.204955
 42
-0.067274
  0
VERTEX
  8
0
 10
163.649955
 20
64.215954
 42
-0.055690
  0
VERTEX
  8
0
 10
164.477696
 20
64.020551
 42
-0.014652
  0
VERTEX
  8
0
 10
165.695295
 20
63.544937
 42
-0.345351
  0
VERTEX
  8
0
 10
165.862458
 20
63.241871
 42
-0.225572
  0
VERTEX
  8
0
 10
165.625835
 20
62.899480
 42
-0.007740
  0
VERTEX
  8
0
 10
164.163773
 20
62.087649
 42
-0.039275
  0
VERTEX
  8
0
 10
163.114885
 20
61.628165
 42
-0.063067
  0
VERTEX
  8
0
 10
162.160681
 20
61.426369
 42
-0.077452
  0
VERTEX
  8
0
 10
161.340375
 20
61.485659
 42
-0.111190
  0
VERTEX
  8
0
 10
160.686078
 20
61.800283
 42
0.055174
  0
VERTEX
  8
0
 10
159.981352
 20
62.241572
 42
0.012015
  0
VERTEX
  8
0
 10
158.673410
 20
62.833817
 42
0.012381
  0
VERTEX
  8
0
 10
157.118346
 20
63.448440
 42
0.011582
  0
VERTEX
  8
0
 10
155.500000
 20
64.000000
 42
-0.019714
  0
VERTEX
  8
0
 10
152.286439
 20
65.153890
 42
-0.068936
  0
VERTEX
  8
0
 10
150.382063
 20
66.248845
 42
-0.112835
  0
VERTEX
  8
0
 10
149.364068
 20
67.490822
 42
-0.115989
  0
VERTEX
  8
0
 10
149.000000
 20
69.039111
 42
-0.104340
  0
VERTEX
  8
0
 10
149.242295
 20
70.187554
 42
-0.121966
  0
VERTEX
  8
0
 10
149.922604
 20
71.066678
 42
-0.099212
  0
VERTEX
  8
0
 10
151.060841
 20
71.647294
 42
-0.051263
  0
VERTEX
  8
0
 10
152.641592
 20
71.921053
 42
-0.185734
  0
VERTEX
  8
0
 10
153.123967
 20
71.772768
 42
-0.067724
  0
VERTEX
  8
0
 10
153.630030
 20
71.250913
 42
-0.055473
  0
VERTEX
  8
0
 10
154.081949
 20
70.468820
 42
-0.041830
  0
SEQEND
  0
POLYLINE
  8
0
 66
1
 70
1
  0
VERTEX
  8
0
 10
40.198901
 20
101.290044
 42
0.008598
  0
VERTEX
  8
0
 10
40.444249
 20
97.747730
 42
0.091312
  0
VERTEX
  8
0
 10
40.826268
 20
96.359114
 42
0.208221
  0
VERTEX
  8
0
 10
41.576910
 20
95.714394
 42
0.074904
  0
VERTEX
  8
0
 10
43.000000
 20
95.500000
 42
0.000000
  0
VERTEX
  8
0
 10
45.500000
 20
95.500000
 42
0.000000
  0
VERTEX
  8
0
 10
45.772065
 20
76.750000
 42
0.000000
  0
VERTEX
  8
0
 10
46.044131
 20
58.000000
 42
0.000000
  0
VERTEX
  8
0
 10
43.022065
 20
58.000000
 42
0.038055
  0
VERTEX
  8
0
 10
41.184056
 20
57.859906
 42
0.222852
  0
VERTEX
  8
0
 10
40.400393
 20
57.334422
 42
0.126452
  0
VERTEX
  8
0
 10
40.061969
 20
56.200369
 42
0.009610
  0
VERTEX
  8
0
 10
40.000000
 20
52.976386
 42
0.000000
  0
VERTEX
  8
0
 10
40.000000
 20
47.952772
 42
0.000000
  0
VERTEX
  8
0
 10
57.250000
 20
48.226386
 42
0.000000
  0
VERTEX
  8
0
 10
74.500000
 20
48.500000
 42
0.000000
  0
VERTEX
  8
0
 10
74.782751
 20
59.750000
 42
0.000000
  0
VERTEX
  8
0
 10
75.065502
 20
71.000000
 42
0.000000
  0
VERTEX
  8
0
 10
80.467651
 20
71.000000
 42
-0.015672
  0
VERTEX
  8
0
 10
82.721446
 20
70.929340
 42
-0.014497
  0
VERTEX
  8
0
 10
85.026017
 20
70.717475
 42
-0.014664
  0
VERTEX
  8
0
 10
87.065887
 20
70.409194
 42
-0.046033
  0
VERTEX
  8
0
 10
88.399495
 20
70.038212
 42
-0.099971
  0
VERTEX
  8
0
 10
89.856602
 20
69.119393
 42
-0.141871
  0
VERTEX
  8
0
 10
90.622741
 20
67.802936
 42
-0.050390
  0
VERTEX
  8
0
 10
90.979810
 20
65.349119
 42
-0.004018
  0
VERTEX
  8
0
 10
91.214595
 20
58.788212
 42
0.000000
  0
VERTEX
  8
0
 10
91.500000
 20
48.500000
 42
0.000000
  0
VERTEX
  8
0
 10
108.224908
 20
48.225935
 42
0.001771
  0
VERTEX
  8
0
 10
119.319422
 20
48.083437
 42
0.031128
  0
VERTEX
  8
0
 10
122.909078
 20
48.273632
 42
0.123931
  0
VERTEX
  8
0
 10
124.614137
 20
48.918879
 42
0.181820
  0
VERTEX
  8
0
 10
125.513547
 20
50.225935
 42
0.052552
  0
VERTEX
  8
0
 10
125.900246
 20
53.010493
 42
0.083721
  0
VERTEX
  8
0
 10
125.579656
 20
55.387388
 42
0.112264
  0
VERTEX
  8
0
 10
124.617795
 20
57.049105
 42
0.170447
  0
VERTEX
  8
0
 10
123.155244
 20
57.819551
 42
-0.104438
  0
VERTEX
  8
0
 10
121.997600
 20
58.249111
 42
-0.170445
  0
VERTEX
  8
0
 10
121.354326
 20
59.061543
 42
-0.073931
  0
VERTEX
  8
0
 10
121.063634
 20
60.619389
 42
-0.009221
  0
VERTEX
  8
0
 10
121.000000
 20
64.069551
 42
0.043716
  0
VERTEX
  8
0
 10
120.597923
 20
68.659453
 42
0.120763
  0
VERTEX
  8
0
 10
119.298458
 20
71.607904
 42
0.122340
  0
VERTEX
  8
0
 10
116.794875
 20
73.598915
 42
0.045457
  0
VERTEX
  8
0
 10
112.519244
 20
75.099471
 42
-0.015575
  0
VERTEX
  8
0
 10
110.787372
 20
75.593399
 42
-0.023971
  0
VERTEX
  8
0
 10
109.327528
 20
76.137737
 42
-0.020699
  0
VERTEX
  8
0
 10
108.222291
 20
76.666500
 42
-0.277612
  0
VERTEX
  8
0
 10
108.000000
 20
77.036007
 42
-0.253224
  0
VERTEX
  8
0
 10
108.214331
 20
77.432075
 42
-0.017579
  0
VERTEX
  8
0
 10
109.337296
 20
78.110720
 42
-0.021590
  0
VERTEX
  8
0
 10
110.808039
 20
78.849079
 42
-0.014323
  0
VERTEX
  8
0
 10
112.552497
 20
79.573199
 42
0.025760
  0
VERTEX
  8
0
 10
114.401486
 20
80.390754
 42
0.024346
  0
VERTEX
  8
0
 10
116.192903
 20
81.408159
 42
0.025122
  0
VERTEX
  8
0
 10
117.687671
 20
82.464991
 42
0.073665
  0
VERTEX
  8
0
 10
118.552497
 20
83.378413
 42
0.116632
  0
VERTEX
  8
0
 10
119.623900
 20
86.070247
 42
0.035623
  0
VERTEX
  8
0
 10
119.956098
 20
90.469575
 42
0.035537
  0
VERTEX
  8
0
 10
119.661693
 20
94.864253
 42
0.119439
  0
VERTEX
  8
0
 10
118.611255
 20
97.527494
 42
0.078402
  0
VERTEX
  8
0
 10
117.667854
 20
98.500554
 42
0.014432
  0
VERTEX
  8
0
 10
115.620066
 20
99.948701
 42
0.015182
  0
VERTEX
  8
0
 10
113.100607
 20
101.515327
 42
0.013303
  0
VERTEX
  8
0
 10
110.378636
 20
103.000000
 42
0.000000
  0
VERTEX
  8
0
 10
103.534760
 20
106.500000
 42
0.000000
  0
VERTEX
  8
0
 10
71.716281
 20
106.790044
 42
0.000000
  0
VERTEX
  8
0
 10
39.897803
 20
107.080088
 42
0.000000
  0
SEQEND
  0
POLYLINE
  8
0
 66
1
 70
1
  0
VERTEX
  8
0
 10
86.936075
 20
93.120326
 42
-0.138866
  0
VERTEX
  8
0
 10
88.837986
 20
91.958710
 42
-0.110734
  0
VERTEX
  8
0
 10
90.049633
 20
89.871495
 42
-0.107207
  0
VERTEX
  8
0
 10
90.276435
 20
87.407749
 42
-0.122916
  0
VERTEX
  8
0
 10
89.431317
 20
85.205403
 42
-0.093086
  0
VERTEX
  8
0
 10
88.536739
 20
84.330734
 42
-0.049218
  0
VERTEX
  8
0
 10
87.162671
 20
83.597553
 42
-0.040379
  0
VERTEX
  8
0
 10
85.362369
 20
83.018716
 42
-0.024626
  0
VERTEX
  8
0
 10
83.164444
 20
82.616202
 42
-0.023520
  0
VERTEX
  8
0
 10
78.477083
 20
82.217503
 42
-0.169304
  0
VERTEX
  8
0
 10
76.340813
 20
82.872723
 42
-0.201811
  0
VERTEX
  8
0
 10
75.280296
 20
84.643967
 42
-0.035320
  0
VERTEX
  8
0
 10
75.000000
 20
88.606989
 42
0.000000
  0
VERTEX
  8
0
 10
75.000000
 20
94.000000
 42
0.000000
  0
VERTEX
  8
0
 10
79.750000
 20
93.900320
 42
-0.011547
  0
VERTEX
  8
0
 10
81.747231
 20
93.812235
 42
-0.010238
  0
VERTEX
  8
0
 10
83.820285
 20
93.630079
 42
-0.010335
  0
VERTEX
  8
0
 10
85.679866
 20
93.389251
 42
-0.030727
  0
SEQEND
  0
POLYLINE
  8
0
 66
1
 70
1
  0
VERTEX
  8
0
 10
207.202283
 20
100.750000
 42
0.008945
  0
VERTEX
  8
0
 10
207.441455
 20
97.103044
 42
0.071766
  0
VERTEX
  8
0
 10
207.818591
 20
95.467783
 42
0.164129
  0
VERTEX
  8
0
 10
208.524468
 20
94.621710
 42
0.102621
  0
VERTEX
  8
0
 10
209.750000
 20
94.180449
 42
-0.209723
  0
VERTEX
  8
0
 10
211.049211
 20
93.375770
 42
-0.120615
  0
VERTEX
  8
0
 10
211.714173
 20
91.623714
 42
-0.029042
  0
VERTEX
  8
0
 10
211.961213
 20
87.804944
 42
-0.001633
  0
VERTEX
  8
0
 10
212.000000
 20
75.930449
 42
0.000000
  0
VERTEX
  8
0
 10
212.000000
 20
58.000000
 42
0.000000
  0
VERTEX
  8
0
 10
209.445209
 20
58.000000
 42
0.052991
  0
VERTEX
  8
0
 10
207.969271
 20
57.843136
 42
0.233261
  0
VERTEX
  8
0
 10
207.302792
 20
57.315013
 42
0.117122
  0
VERTEX
  8
0
 10
207.065371
 20
56.196676
 42
0.010023
  0
VERTEX
  8
0
 10
207.195209
 20
53.250000
 42
0.000000
  0
VERTEX
  8
0
 10
207.500000
 20
48.500000
 42
0.000000
  0
VERTEX
  8
0
 10
226.000000
 20
48.500000
 42
0.000000
  0
VERTEX
  8
0
 10
244.500000
 20
48.500000
 42
0.000000
  0
VERTEX
  8
0
 10
244.804791
 20
53.250000
 42
0.011223
  0
VERTEX
  8
0
 10
244.917700
 20
55.960341
 42
0.089871
  0
VERTEX
  8
0
 10
244.719307
 20
57.189152
 42
0.208560
  0
VERTEX
  8
0
 10
244.163327
 20
57.785290
 42
0.102611
  0
VERTEX
  8
0
 10
243.128115
 20
58.000000
 42
-0.234835
  0
VERTEX
  8
0
 10
241.628932
 20
58.745218
 42
-0.133287
  0
VERTEX
  8
0
 10
240.853922
 20
60.667921
 42
-0.032022
  0
VERTEX
  8
0
 10
240.619423
 20
64.996112
 42
-0.002059
  0
VERTEX
  8
0
 10
240.796646
 20
77.641301
 42
-0.002123
  0
VERTEX
  8
0
 10
241.024776
 20
87.833830
 42
-0.027522
  0
VERTEX
  8
0
 10
241.334489
 20
91.618366
 42
-0.099120
  0
VERTEX
  8
0
 10
241.942333
 20
93.368501
 42
-0.265733
  0
VERTEX
  8
0
 10
243.046646
 20
94.000000
 42
0.141692
  0
VERTEX
  8
0
 10
244.079695
 20
94.298747
 42
0.180897
  0
VERTEX
  8
0
 10
244.674871
 20
95.081902
 42
0.065528
  0
VERTEX
  8
0
 10
244.943129
 20
96.733040
 42
0.007548
  0
VERTEX
  8
0
 10
245.000000
 20
100.500000
 42
0.000000
  0
VERTEX
  8
0
 10
245.000000
 20
107.000000
 42
0.000000
  0
VERTEX
  8
0
 10
225.952283
 20
107.000000
 42
0.000000
  0
VERTEX
  8
0
 10
206.904565
 20
107.000000
 42
0.000000
  0
SEQEND
  0
POLYLINE
  8
0
 66
1
 70
1
  0
VERTEX
  8
0
 10
345.000000
 20
101.582344
 42
0.010497
  0
VERTEX
  8
0
 10
345.066571
 20
98.411755
 42
0.082750
  0
VERTEX
  8
0
 10
345.368016
 20
96.977146
 42
0.176786
  0
VERTEX
  8
0
 10
346.032540
 20
96.222820
 42
0.089631
  0
VERTEX
  8
0
 10
347.250000
 20
95.819551
 42
-0.202865
  0
VERTEX
  8
0
 10
348.545105
 20
95.040802
 42
-0.125639
  0
VERTEX
  8
0
 10
349.212212
 20
93.366478
 42
-0.030553
  0
VERTEX
  8
0
 10
349.460645
 20
89.724075
 42
-0.001753
  0
VERTEX
  8
0
 10
349.500000
 20
78.500000
 42
-0.001717
  0
VERTEX
  8
0
 10
349.461165
 20
67.193147
 42
-0.031228
  0
VERTEX
  8
0
 10
349.211451
 20
63.595775
 42
-0.131152
  0
VERTEX
  8
0
 10
348.529878
 20
61.949642
 42
-0.196616
  0
VERTEX
  8
0
 10
347.204244
 20
61.174453
 42
0.088964
  0
VERTEX
  8
0
 10
345.931435
 20
60.755021
 42
0.196604
  0
VERTEX
  8
0
 10
345.294363
 20
59.978004
 42
0.079293
  0
VERTEX
  8
0
 10
345.079616
 20
58.456804
 42
0.007463
  0
VERTEX
  8
0
 10
345.204244
 20
54.674453
 42
0.000000
  0
VERTEX
  8
0
 10
345.500000
 20
48.500000
 42
0.000000
  0
VERTEX
  8
0
 10
381.486227
 20
48.500000
 42
0.000000
  0
VERTEX
  8
0
 10
417.472454
 20
48.500000
 42
0.000000
  0
VERTEX
  8
0
 10
418.128970
 20
53.500000
 42
0.000557
  0
VERTEX
  8
0
 10
418.423008
 20
55.758871
 42
0.000340
  0
VERTEX
  8
0
 10
418.765397
 20
58.426563
 42
0.000341
  0
VERTEX
  8
0
 10
419.101086
 20
61.070541
 42
0.000604
  0
VERTEX
  8
0
 10
419.373613
 20
63.250000
 42
0.000000
  0
VERTEX
  8
0
 10
419.961739
 20
68.000000
 42
0.000000
  0
VERTEX
  8
0
 10
408.125530
 20
68.000000
 42
0.000000
  0
VERTEX
  8
0
 10
396.289321
 20
68.000000
 42
0.000000
  0
VERTEX
  8
0
 10
395.357233
 20
64.750000
 42
0.000000
  0
VERTEX
  8
0
 10
394.425145
 20
61.500000
 42
0.000000
  0
VERTEX
  8
0
 10
387.462573
 20
61.500000
 42
0.000000
  0
VERTEX
  8
0
 10
380.500000
 20
61.500000
 42
0.000000
  0
VERTEX
  8
0
 10
380.500000
 20
67.000000
 42
0.000000
  0
VERTEX
  8
0
 10
380.500000
 20
72.500000
 42
0.000000
  0
VERTEX
  8
0
 10
391.250000
 20
72.783832
 42
0.000000
  0
VERTEX
  8
0
 10
402.000000
 20
73.067663
 42
0.000000
  0
VERTEX
  8
0
 10
402.000000
 20
78.533832
 42
0.000000
  0
VERTEX
  8
0
 10
402.000000
 20
84.000000
 42
0.000000
  0
VERTEX
  8
0
 10
391.000000
 20
84.000000
 42
0.000000
  0
VERTEX
  8
0
 10
380.000000
 20
84.000000
 42
0.000000
  0
VERTEX
  8
0
 10
380.000000
 20
89.000000
 42
0.000000
  0
VERTEX
  8
0
 10
380.000000
 20
94.000000
 42
0.000000
  0
VERTEX
  8
0
 10
386.402175
 20
94.000000
 42
-0.008283
  0
VERTEX
  8
0
 10
390.461657
 20
93.932744
 42
-0.087669
  0
VERTEX
  8
0
 10
392.075909
 20
93.592014
 42
-0.165447
  0
VERTEX
  8
0
 10
393.030215
 20
92.770372
 42
-0.049191
  0
VERTEX
  8
0
 10
393.850155
 20
91.000000
 42
0.000000
  0
VERTEX
  8
0
 10
394.895961
 20
88.000000
 42
0.000000
  0
VERTEX
  8
0
 10
406.385110
 20
88.000000
 42
0.000000
  0
VERTEX
  8
0
 10
417.874259
 20
88.000000
 42
0.000000
  0
VERTEX
  8
0
 10
417.389851
 20
91.250000
 42
-0.003710
  0
VERTEX
  8
0
 10
417.155916
 20
92.903582
 42
-0.001264
  0
VERTEX
  8
0
 10
416.840150
 20
95.307812
 42
-0.001257
  0
VERTEX
  8
0
 10
416.504837
 20
97.964554
 42
-0.001449
  0
VERTEX
  8
0
 10
416.198761
 20
100.500000
 42
0.000000
  0
VERTEX
  8
0
 10
415.492079
 20
106.500000
 42
0.000000
  0
VERTEX
  8
0
 10
380.246039
 20
106.762793
 42
0.000000
  0
VERTEX
  8
0
 10
345.000000
 20
107.025585
 42
0.000000
  0
SEQEND
  0
POLYLINE
  8
0
 66
1
 70
1
  0
VERTEX
  8
0
 10
428.000000
 20
101.606269
 42
0.009376
  0
VERTEX
  8
0
 10
428.063995
 20
98.194058
 42
0.101829
  0
VERTEX
  8
0
 10
428.390060
 20
96.864313
 42
0.200684
  0
VERTEX
  8
0
 10
429.150162
 20
96.182349
 42
0.055206
  0
VERTEX
  8
0
 10
430.750000
 20
95.816422
 42
0.000000
  0
VERTEX
  8
0
 10
433.500000
 20
95.500000
 42
0.000000
  0
VERTEX
  8
0
 10
433.772065
 20
76.750000
 42
0.000000
  0
VERTEX
  8
0
 10
434.044131
 20
58.000000
 42
0.000000
  0
VERTEX
  8
0
 10
431.022065
 20
58.000000
 42
0.037934
  0
VERTEX
  8
0
 10
429.184777
 20
57.860408
 42
0.222432
  0
VERTEX
  8
0
 10
428.401103
 20
57.336376
 42
0.126885
  0
VERTEX
  8
0
 10
428.062230
 20
56.205897
 42
0.009705
  0
VERTEX
  8
0
 10
428.000000
 20
53.000000
 42
0.000000
  0
VERTEX
  8
0
 10
428.000000
 20
48.000000
 42
0.000000
  0
VERTEX
  8
0
 10
445.467249
 20
48.000000
 42
0.000000
  0
VERTEX
  8
0
 10
462.934498
 20
48.000000
 42
0.000000
  0
VERTEX
  8
0
 10
463.217249
 20
59.250000
 42
0.000000
  0
VERTEX
  8
0
 10
463.500000
 20
70.500000
 42
0.000000
  0
VERTEX
  8
0
 10
468.564379
 20
70.795822
 42
-0.019980
  0
VERTEX
  8
0
 10
470.697716
 20
70.835063
 42
-0.017612
  0
VERTEX
  8
0
 10
472.919598
 20
70.708761
 42
-0.017965
  0
VERTEX
  8
0
 10
474.915301
 20
70.452046
 42
-0.049907
  0
VERTEX
  8
0
 10
476.278974
 20
70.084034
 42
-0.090944
  0
VERTEX
  8
0
 10
477.823997
 20
69.147979
 42
-0.148690
  0
VERTEX
  8
0
 10
478.617323
 20
67.852516
 42
-0.052779
  0
VERTEX
  8
0
 10
478.977842
 20
65.447590
 42
-0.003902
  0
VERTEX
  8
0
 10
479.214595
 20
58.788212
 42
0.000000
  0
VERTEX
  8
0
 10
479.500000
 20
48.500000
 42
0.000000
  0
VERTEX
  8
0
 10
496.500000
 20
48.500000
 42
0.000000
  0
VERTEX
  8
0
 10
513.500000
 20
48.500000
 42
0.000000
  0
VERTEX
  8
0
 10
513.642628
 20
53.250000
 42
0.010980
  0
VERTEX
  8
0
 10
513.665618
 20
56.102483
 42
0.107530
  0
VERTEX
  8
0
 10
513.394873
 20
57.268587
 42
0.219745
  0
VERTEX
  8
0
 10
512.731238
 20
57.822820
 42
0.065893
  0
VERTEX
  8
0
 10
511.392628
 20
58.000000
 42
-0.076881
  0
VERTEX
  8
0
 10
510.045709
 20
58.208337
 42
-0.217819
  0
VERTEX
  8
0
 10
509.357471
 20
58.831551
 42
-0.093149
  0
VERTEX
  8
0
 10
509.058602
 20
60.166562
 42
-0.008619
  0
VERTEX
  8
0
 10
509.000000
 20
63.565741
 42
0.016025
  0
VERTEX
  8
0
 10
508.927347
 20
65.832008
 42
0.017122
  0
VERTEX
  8
0
 10
508.709602
 20
68.039159
 42
0.016933
  0
VERTEX
  8
0
 10
508.394279
 20
69.916141
 42
0.072902
  0
VERTEX
  8
0
 10
508.011413
 20
70.978675
 42
0.127936
  0
VERTEX
  8
0
 10
506.887508
 20
72.195100
 42
0.031464
  0
VERTEX
  8
0
 10
504.488753
 20
73.529046
 42
0.024052
  0
VERTEX
  8
0
 10
500.963261
 20
75.005119
 42
0.009570
  0
VERTEX
  8
0
 10
496.000000
 20
76.701146
 42
-0.456418
  0
VERTEX
  8
0
 10
495.845307
 20
77.062685
 42
-0.126850
  0
VERTEX
  8
0
 10
496.301229
 20
77.599159
 42
-0.044044
  0
VERTEX
  8
0
 10
497.558193
 20
78.328906
 42
-0.014946
  0
VERTEX
  8
0
 10
499.500000
 20
79.168453
 42
0.023472
  0
VERTEX
  8
0
 10
504.265544
 20
81.325989
 42
0.109267
  0
VERTEX
  8
0
 10
506.579242
 20
83.234530
 42
0.128681
  0
VERTEX
  8
0
 10
507.676100
 20
85.775978
 42
0.037889
  0
VERTEX
  8
0
 10
508.000000
 20
90.044204
 42
0.044313
  0
VERTEX
  8
0
 10
507.595938
 20
94.594403
 42
0.119071
  0
VERTEX
  8
0
 10
506.296960
 20
97.549377
 42
0.091779
  0
VERTEX
  8
0
 10
503.566893
 20
100.025018
 42
0.019903
  0
VERTEX
  8
0
 10
498.000000
 20
103.166133
 42
0.000000
  0
VERTEX
  8
0
 10
491.500000
 20
106.500000
 42
0.000000
  0
VERTEX
  8
0
 10
459.750000
 20
106.789847
 42
0.000000
  0
VERTEX
  8
0
 10
428.000000
 20
107.079694
 42
0.000000
  0
SEQEND
  0
POLYLINE
  8
0
 66
1
 70
1
  0
VERTEX
  8
0
 10
477.599366
 20
91.533222
 42
-0.122430
  0
VERTEX
  8
0
 10
478.320082
 20
89.768475
 42
-0.065473
  0
VERTEX
  8
0
 10
478.351635
 20
87.399040
 42
-0.066764
  0
VERTEX
  8
0
 10
477.780829
 20
85.170763
 42
-0.153023
  0
VERTEX
  8
0
 10
476.692386
 20
83.846027
 42
-0.106918
  0
VERTEX
  8
0
 10
474.819569
 20
83.127619
 42
-0.011656
  0
VERTEX
  8
0
 10
470.214336
 20
82.525782
 42
-0.009598
  0
VERTEX
  8
0
 10
465.529066
 20
82.115040
 42
-0.156720
  0
VERTEX
  8
0
 10
464.017416
 20
82.489237
 42
-0.194424
  0
VERTEX
  8
0
 10
463.619646
 20
83.031176
 42
-0.021530
  0
VERTEX
  8
0
 10
463.298866
 20
84.565834
 42
-0.023708
  0
VERTEX
  8
0
 10
463.074167
 20
86.500990
 42
-0.017049
  0
VERTEX
  8
0
 10
463.000000
 20
88.675513
 42
0.000000
  0
VERTEX
  8
0
 10
463.000000
 20
94.232991
 42
0.000000
  0
VERTEX
  8
0
 10
469.620895
 20
93.811405
 42
-0.013332
  0
VERTEX
  8
0
 10
472.895965
 20
93.515017
 42
-0.040328
  0
VERTEX
  8
0
 10
475.090252
 20
93.075859
 42
-0.061520
  0
VERTEX
  8
0
 10
476.589140
 20
92.440328
 42
-0.104254
  0
SEQEND
  0
POLYLINE
  8
0
 66
1
 70
1
  0
VERTEX
  8
0
 10
539.000000
 20
105.474448
 42
0.023420
  0
VERTEX
  8
0
 10
536.886302
 20
104.704864
 42
0.010761
  0
VERTEX
  8
0
 10
534.206250
 20
103.515961
 42
0.010631
  0
VERTEX
  8
0
 10
531.434728
 20
102.141733
 42
0.014466
  0
VERTEX
  8
0
 10
529.000000
 20
100.778231
 42
0.000000
  0
VERTEX
  8
0
 10
523.500000
 20
97.485586
 42
0.000000
  0
VERTEX
  8
0
 10
523.214945
 20
88.429505
 42
0.006427
  0
VERTEX
  8
0
 10
523.118803
 20
83.264529
 42
0.039812
  0
VERTEX
  8
0
 10
523.314332
 20
80.620784
 42
0.080324
  0
VERTEX
  8
0
 10
523.858614
 20
78.943093
 42
0.090551
  0
VERTEX
  8
0
 10
524.889408
 20
77.600084
 42
0.113171
  0
VERTEX
  8
0
 10
526.649800
 20
76.614976
 42
0.013181
  0
VERTEX
  8
0
 10
531.040710
 20
75.454243
 42
0.011865
  0
VERTEX
  8
0
 10
537.364934
 20
74.117197
 42
0.004076
  0
VERTEX
  8
0
 10
546.577785
 20
72.474337
 42
-0.005009
  0
VERTEX
  8
0
 10
559.961166
 20
70.061999
 42
-0.044555
  0
VERTEX
  8
0
 10
565.714285
 20
68.423832
 42
-0.146951
  0
VERTEX
  8
0
 10
568.120902
 20
66.562714
 42
-0.236266
  0
VERTEX
  8
0
 10
568.517210
 20
64.054223
 42
-0.137332
  0
VERTEX
  8
0
 10
567.333599
 20
62.248784
 42
-0.091442
  0
VERTEX
  8
0
 10
565.192408
 20
60.979296
 42
-0.062378
  0
VERTEX
  8
0
 10
561.973014
 20
60.231599
 42
-0.025908
  0
VERTEX
  8
0
 10
557.506329
 20
60.000000
 42
-0.037620
  0
VERTEX
  8
0
 10
553.710400
 20
60.286010
 42
-0.099880
  0
VERTEX
  8
0
 10
551.166877
 20
61.213052
 42
-0.122304
  0
VERTEX
  8
0
 10
549.485819
 20
62.916475
 42
-0.072498
  0
VERTEX
  8
0
 10
548.393093
 20
65.569927
 42
0.133214
  0
VERTEX
  8
0
 10
547.607108
 20
66.972535
 42
0.154245
  0
VERTEX
  8
0
 10
546.260317
 20
67.689301
 42
0.043133
  0
VERTEX
  8
0
 10
543.509290
 20
67.956398
 42
0.002644
  0
VERTEX
  8
0
 10
535.262466
 20
68.000000
 42
0.000000
  0
VERTEX
  8
0
 10
522.741749
 20
68.000000
 42
0.000000
  0
VERTEX
  8
0
 10
523.459832
 20
59.768039
 42
0.031135
  0
VERTEX
  8
0
 10
524.678548
 20
51.663768
 42
0.253930
  0
VERTEX
  8
0
 10
527.033963
 20
48.917079
 42
0.091889
  0
VERTEX
  8
0
 10
531.949025
 20
48.015957
 42
0.002509
  0
VERTEX
  8
0
 10
553.853305
 20
48.168340
 42
0.000000
  0
VERTEX
  8
0
 10
581.548836
 20
48.500000
 42
0.000000
  0
VERTEX
  8
0
 10
588.236410
 20
51.793951
 42
0.026850
  0
VERTEX
  8
0
 10
593.844909
 20
54.941101
 42
0.089662
  0
VERTEX
  8
0
 10
596.938105
 20
57.787599
 42
0.110136
  0
VERTEX
  8
0
 10
598.493994
 20
61.192032
 42
0.052370
  0
VERTEX
  8
0
 10
599.000000
 20
66.009859
 42
0.016051
  0
VERTEX
  8
0
 10
598.815233
 20
71.763862
 42
0.055022
  0
VERTEX
  8
0
 10
598.168100
 20
75.442546
 42
0.089397
  0
VERTEX
  8
0
 10
596.964878
 20
77.856611
 42
0.113697
  0
VERTEX
  8
0
 10
595.072332
 20
79.462596
 42
0.067331
  0
VERTEX
  8
0
 10
593.228580
 20
80.120594
 42
0.004690
  0
VERTEX
  8
0
 10
587.821302
 20
81.210802
 42
0.006591
  0
VERTEX
  8
0
 10
581.322523
 20
82.369157
 42
0.004910
  0
VERTEX
  8
0
 10
574.123697
 20
83.482118
 42
-0.001692
  0
VERTEX
  8
0
 10
567.012942
 20
84.534657
 42
-0.002511
  0
VERTEX
  8
0
 10
560.791109
 20
85.509130
 42
-0.001106
  0
VERTEX
  8
0
 10
555.485590
 20
86.379455
 42
-0.050443
  0
VERTEX
  8
0
 10
554.417674
 20
86.669965
 42
-0.143317
  0
VERTEX
  8
0
 10
553.874156
 20
87.084097
 42
-0.060021
  0
VERTEX
  8
0
 10
553.416442
 20
87.892674
 42
-0.052620
  0
VERTEX
  8
0
 10
553.104989
 20
88.936146
 42
-0.046262
  0
VERTEX
  8
0
 10
553.000000
 20
90.068445
 42
-0.053959
  0
VERTEX
  8
0
 10
553.172566
 20
91.662846
 42
-0.150776
  0
VERTEX
  8
0
 10
553.720324
 20
92.630887
 42
-0.104711
  0
VERTEX
  8
0
 10
554.858160
 20
93.325235
 42
-0.019056
  0
VERTEX
  8
0
 10
557.230850
 20
94.062162
 42
-0.054176
  0
VERTEX
  8
0
 10
562.349953
 20
94.860920
 42
-0.079687
  0
VERTEX
  8
0
 10
566.865067
 20
94.350830
 42
-0.099308
  0
VERTEX
  8
0
 10
570.269300
 20
92.623734
 42
-0.143423
  0
VERTEX
  8
0
 10
572.213937
 20
89.890715
 42
0.288783
  0
VERTEX
  8
0
 10
572.638861
 20
89.550591
 42
0.004536
  0
VERTEX
  8
0
 10
575.867531
 20
89.214685
 42
0.010409
  0
VERTEX
  8
0
 10
579.725102
 20
88.929574
 42
0.006512
  0
VERTEX
  8
0
 10
584.250000
 20
88.748780
 42
0.003794
  0
VERTEX
  8
0
 10
590.802253
 20
88.622154
 42
0.028891
  0
VERTEX
  8
0
 10
593.882969
 20
88.764061
 42
0.077001
  0
VERTEX
  8
0
 10
595.441569
 20
89.174506
 42
0.309472
  0
VERTEX
  8
0
 10
595.937240
 20
89.966254
 42
0.022000
  0
VERTEX
  8
0
 10
595.855017
 20
90.932510
 42
0.002153
  0
VERTEX
  8
0
 10
595.544164
 20
93.252587
 42
0.002722
  0
VERTEX
  8
0
 10
595.146479
 20
96.015771
 42
0.002153
  0
VERTEX
  8
0
 10
594.687240
 20
99.000000
 42
0.000000
  0
VERTEX
  8
0
 10
593.500000
 20
106.500000
 42
0.000000
  0
VERTEX
  8
0
 10
568.500000
 20
106.689010
 42
0.002686
  0
VERTEX
  8
0
 10
555.942605
 20
106.716501
 42
0.009492
  0
VERTEX
  8
0
 10
547.879877
 20
106.537761
 42
0.013824
  0
VERTEX
  8
0
 10
542.390049
 20
106.159497
 42
0.051521
  0
SEQEND
  0
POLYLINE
  8
0
 66
1
 70
1
  0
VERTEX
  8
0
 10
255.000000
 20
99.500000
 42
0.000000
  0
VERTEX
  8
0
 10
255.000000
 20
93.000000
 42
0.000000
  0
VERTEX
  8
0
 10
258.000000
 20
93.000000
 42
0.000000
  0
VERTEX
  8
0
 10
261.000000
 20
93.000000
 42
0.000000
  0
VERTEX
  8
0
 10
261.000000
 20
77.000000
 42
0.000000
  0
VERTEX
  8
0
 10
261.000000
 20
61.000000
 42
0.000000
  0
VERTEX
  8
0
 10
258.000000
 20
61.000000
 42
0.000000
  0
VERTEX
  8
0
 10
255.000000
 20
61.000000
 42
0.000000
  0
VERTEX
  8
0
 10
255.000000
 20
55.000000
 42
0.000000
  0
VERTEX
  8
0
 10
255.000000
 20
49.000000
 42
0.000000
  0
VERTEX
  8
0
 10
286.840278
 20
49.000000
 42
0.000000
  0
VERTEX
  8
0
 10
318.680555
 20
49.000000
 42
0.000000
  0
VERTEX
  8
0
 10
324.723718
 20
52.019804
 42
0.015107
  0
VERTEX
  8
0
 10
327.229263
 20
53.367919
 42
0.013289
  0
VERTEX
  8
0
 10
329.760316
 20
54.921155
 42
0.013473
  0
VERTEX
  8
0
 10
331.968914
 20
56.444918
 42
0.038650
  0
VERTEX
  8
0
 10
333.383440
 20
57.656168
 42
0.000000
  0
VERTEX
  8
0
 10
336.000000
 20
60.272727
 42
0.000000
  0
VERTEX
  8
0
 10
336.000000
 20
77.462050
 42
0.007413
  0
VERTEX
  8
0
 10
335.804327
 20
90.658946
 42
0.104754
  0
VERTEX
  8
0
 10
334.693920
 20
95.228135
 42
0.150455
  0
VERTEX
  8
0
 10
331.873503
 20
98.281157
 42
0.020073
  0
VERTEX
  8
0
 10
324.028212
 20
102.427227
 42
0.000000
  0
VERTEX
  8
0
 10
316.556424
 20
106.000000
 42
0.000000
  0
VERTEX
  8
0
 10
285.778212
 20
106.000000
 42
0.000000
  0
VERTEX
  8
0
 10
255.000000
 20
106.000000
 42
0.000000
  0
SEQEND
  0
POLYLINE
  8
0
 66
1
 70
1
  0
VERTEX
  8
0
 10
304.777494
 20
91.443296
 42
-0.107023
  0
VERTEX
  8
0
 10
306.024522
 20
90.095406
 42
-0.094247
  0
VERTEX
  8
0
 10
306.674071
 20
88.290083
 42
-0.035870
  0
VERTEX
  8
0
 10
306.946173
 20
85.123790
 42
-0.003504
  0
VERTEX
  8
0
 10
307.000000
 20
77.443296
 42
-0.004149
  0
VERTEX
  8
0
 10
306.939423
 20
70.143391
 42
-0.030938
  0
VERTEX
  8
0
 10
306.667767
 20
66.687829
 42
-0.068696
  0
VERTEX
  8
0
 10
306.068141
 20
64.582662
 42
-0.092950
  0
VERTEX
  8
0
 10
304.953490
 20
62.953490
 42
-0.064942
  0
VERTEX
  8
0
 10
303.606703
 20
61.917497
 42
-0.079410
  0
VERTEX
  8
0
 10
302.125729
 20
61.347320
 42
-0.051431
  0
VERTEX
  8
0
 10
300.076788
 20
61.128793
 42
-0.012811
  0
VERTEX
  8
0
 10
296.703490
 20
61.203490
 42
0.000000
  0
VERTEX
  8
0
 10
290.500000
 20
61.500000
 42
0.000000
  0
VERTEX
  8
0
 10
290.224607
 20
77.250000
 42
0.000000
  0
VERTEX
  8
0
 10
289.949214
 20
93.000000
 42
0.000000
  0
VERTEX
  8
0
 10
296.252101
 20
93.000000
 42
-0.017236
  0
VERTEX
  8
0
 10
299.101818
 20
92.901737
 42
-0.027925
  0
VERTEX
  8
0
 10
301.506783
 20
92.600100
 42
-0.033308
  0
VERTEX
  8
0
 10
303.430751
 20
92.114569
 42
-0.074443
  0
SEQEND
  0
POLYLINE
  8
0
 66
1
 70
1
  0
VERTEX
  8
0
 10
340.623213
 20
618.917217
 42
0.000160
  0
VERTEX
  8
0
 10
340.357978
 20
618.066495
 42
0.000022
  0
VERTEX
  8
0
 10
339.808142
 20
616.300683
 42
0.000025
  0
VERTEX
  8
0
 10
339.157268
 20
614.209680
 42
0.000021
  0
VERTEX
  8
0
 10
338.469678
 20
612.000000
 42
-0.005064
  0
VERTEX
  8
0
 10
337.750051
 20
609.766999
 42
-0.005467
  0
VERTEX
  8
0
 10
337.002876
 20
607.605548
 42
-0.005177
  0
VERTEX
  8
0
 10
336.322757
 20
605.765872
 42
-0.026069
  0
VERTEX
  8
0
 10
335.879247
 20
604.763569
 42
0.029007
  0
VERTEX
  8
0
 10
335.542532
 20
603.990375
 42
0.021489
  0
VERTEX
  8
0
 10
335.258279
 20
603.102224
 42
0.021864
  0
VERTEX
  8
0
 10
335.062151
 20
602.237585
 42
0.044864
  0
VERTEX
  8
0
 10
335.000000
 20
601.546320
 42
-0.302750
  0
VERTEX
  8
0
 10
334.485540
 20
600.774552
 42
-0.059918
  0
VERTEX
  8
0
 10
332.802976
 20
600.299474
 42
-0.027865
  0
VERTEX
  8
0
 10
329.697844
 20
599.988609
 42
-0.004734
  0
VERTEX
  8
0
 10
323.750000
 20
599.782751
 42
0.000000
  0
VERTEX
  8
0
 10
312.500000
 20
599.500000
 42
0.000000
  0
VERTEX
  8
0
 10
314.861591
 20
597.500000
 42
-0.001800
  0
VERTEX
  8
0
 10
315.849229
 20
596.657460
 42
-0.001631
  0
VERTEX
  8
0
 10
316.863873
 20
595.779783
 42
-0.001632
  0
VERTEX
  8
0
 10
317.767018
 20
594.988193
 42
-0.005231
  0
VERTEX
  8
0
 10
318.361591
 20
594.452452
 42
0.024705
  0
VERTEX
  8
0
 10
319.067086
 20
593.864878
 42
0.003633
  0
VERTEX
  8
0
 10
320.560905
 20
592.757790
 42
0.004094
  0
VERTEX
  8
0
 10
322.347928
 20
591.475708
 42
0.003507
  0
VERTEX
  8
0
 10
324.250000
 20
590.154412
 42
-0.022614
  0
VERTEX
  8
0
 10
326.068687
 20
588.785163
 42
-0.028937
  0
VERTEX
  8
0
 10
327.604648
 20
587.358800
 42
-0.029343
  0
VERTEX
  8
0
 10
328.712432
 20
586.059106
 42
-0.163243
  0
VERTEX
  8
0
 10
328.999864
 20
585.201959
 42
-0.057086
  0
VERTEX
  8
0
 10
328.878457
 20
584.142803
 42
-0.005642
  0
VERTEX
  8
0
 10
328.269841
 20
581.649951
 42
-0.007060
  0
VERTEX
  8
0
 10
327.466461
 20
578.688016
 42
-0.005544
  0
VERTEX
  8
0
 10
326.514870
 20
575.500000
 42
0.003907
  0
VERTEX
  8
0
 10
325.561961
 20
572.345303
 42
0.005326
  0
VERTEX
  8
0
 10
324.755531
 20
569.485824
 42
0.003582
  0
VERTEX
  8
0
 10
324.122939
 20
567.079441
 42
0.059519
  0
VERTEX
  8
0
 10
324.015006
 20
566.260252
 42
0.563477
  0
VERTEX
  8
0
 10
324.372826
 20
566.037590
 42
0.014356
  0
VERTEX
  8
0
 10
326.406435
 20
567.144168
 42
0.017097
  0
VERTEX
  8
0
 10
329.040429
 20
568.800093
 42
0.009195
  0
VERTEX
  8
0
 10
332.177112
 20
571.010252
 42
-0.005850
  0
VERTEX
  8
0
 10
335.388480
 20
573.305338
 42
-0.008593
  0
VERTEX
  8
0
 10
338.268604
 20
575.240512
 42
-0.004728
  0
VERTEX
  8
0
 10
340.727731
 20
576.799373
 42
-0.139781
  0
VERTEX
  8
0
 10
341.431354
 20
577.000000
 42
-0.141099
  0
VERTEX
  8
0
 10
342.132089
 20
576.798237
 42
-0.004914
  0
VERTEX
  8
0
 10
344.540831
 20
575.252528
 42
-0.008815
  0
VERTEX
  8
0
 10
347.362380
 20
573.330552
 42
-0.006010
  0
VERTEX
  8
0
 10
350.504242
 20
571.051158
 42
0.008930
  0
VERTEX
  8
0
 10
353.594454
 20
568.836664
 42
0.015486
  0
VERTEX
  8
0
 10
356.247915
 20
567.124768
 42
0.009790
  0
VERTEX
  8
0
 10
358.411673
 20
565.878935
 42
0.463343
  0
VERTEX
  8
0
 10
358.829086
 20
566.038415
 42
0.141543
  0
VERTEX
  8
0
 10
358.866682
 20
566.699187
 42
0.005789
  0
VERTEX
  8
0
 10
358.303896
 20
569.039856
 42
0.009699
  0
VERTEX
  8
0
 10
357.543350
 20
571.821058
 42
0.006686
  0
VERTEX
  8
0
 10
356.579086
 20
574.941565
 42
-0.006766
  0
VERTEX
  8
0
 10
355.591546
 20
578.139217
 42
-0.008252
  0
VERTEX
  8
0
 10
354.757606
 20
581.158272
 42
-0.007086
  0
VERTEX
  8
0
 10
354.136026
 20
583.711194
 42
-0.056224
  0
VERTEX
  8
0
 10
354.000000
 20
584.917047
 42
-0.148276
  0
VERTEX
  8
0
 10
354.336922
 20
586.028202
 42
-0.043499
  0
VERTEX
  8
0
 10
355.464717
 20
587.435012
 42
-0.033675
  0
VERTEX
  8
0
 10
357.254439
 20
589.071720
 42
-0.016158
  0
VERTEX
  8
0
 10
359.750000
 20
590.934174
 42
0.004690
  0
VERTEX
  8
0
 10
367.822004
 20
596.674937
 42
0.257610
  0
VERTEX
  8
0
 10
368.587574
 20
598.305502
 42
0.379454
  0
VERTEX
  8
0
 10
367.518143
 20
599.363789
 42
0.007426
  0
VERTEX
  8
0
 10
359.176988
 20
599.697370
 42
-0.000180
  0
VERTEX
  8
0
 10
355.778954
 20
599.783968
 42
-0.000253
  0
VERTEX
  8
0
 10
352.750534
 20
599.863769
 42
-0.000145
  0
VERTEX
  8
0
 10
350.194207
 20
599.933169
 42
-0.003551
  0
VERTEX
  8
0
 10
349.484406
 20
599.957691
 42
-0.281529
  0
VERTEX
  8
0
 10
348.979497
 20
600.296113
 42
-0.008536
  0
VERTEX
  8
0
 10
347.920044
 20
602.704759
 42
-0.014533
  0
VERTEX
  8
0
 10
346.763765
 20
605.701453
 42
-0.009245
  0
VERTEX
  8
0
 10
345.585069
 20
609.250000
 42
0.005733
  0
VERTEX
  8
0
 10
343.541743
 20
615.549130
 42
0.037284
  0
VERTEX
  8
0
 10
342.245810
 20
618.617110
 42
0.213732
  0
VERTEX
  8
0
 10
341.360296
 20
619.326572
 42
0.400163
  0
SEQEND
  0
POLYLINE
  8
0
 66
1
 70
1
  0
VERTEX
  8
0
 10
238.191534
 20
600.250000
 42
0.006955
  0
VERTEX
  8
0
 10
237.702481
 20
598.915110
 42
0.003045
  0
VERTEX
  8
0
 10
237.089655
 20
597.132812
 42
0.003012
  0
VERTEX
  8
0
 10
236.461931
 20
595.232628
 42
0.004024
  0
VERTEX
  8
0
 10
235.916480
 20
593.500000
 42
-0.007342
  0
VERTEX
  8
0
 10
235.347647
 20
591.734087
 42
-0.004913
  0
VERTEX
  8
0
 10
234.647492
 20
589.730158
 42
-0.004948
  0
VERTEX
  8
0
 10
233.930580
 20
587.801303
 42
-0.009706
  0
VERTEX
  8
0
 10
233.315254
 20
586.283517
 42
0.000000
  0
VERTEX
  8
0
 10
231.937975
 20
583.067034
 42
0.000000
  0
VERTEX
  8
0
 10
221.218988
 20
582.783517
 42
0.000000
  0
VERTEX
  8
0
 10
210.500000
 20
582.500000
 42
0.000000
  0
VERTEX
  8
0
 10
219.250000
 20
576.133394
 42
-0.002704
  0
VERTEX
  8
0
 10
222.604510
 20
573.664753
 42
-0.004368
  0
VERTEX
  8
0
 10
225.429688
 20
571.523400
 42
-0.000946
  0
VERTEX
  8
0
 10
227.880532
 20
569.624424
 42
-0.231429
  0
VERTEX
  8
0
 10
228.000000
 20
569.380139
 42
-0.075813
  0
VERTEX
  8
0
 10
227.955034
 20
569.085287
 42
-0.000402
  0
VERTEX
  8
0
 10
227.083861
 20
566.303330
 42
-0.001766
  0
VERTEX
  8
0
 10
226.076725
 20
563.135435
 42
-0.001118
  0
VERTEX
  8
0
 10
224.881228
 20
559.448850
 42
0.006653
  0
VERTEX
  8
0
 10
223.726663
 20
555.749416
 42
0.010481
  0
VERTEX
  8
0
 10
222.844930
 20
552.541614
 42
0.004799
  0
VERTEX
  8
0
 10
222.187963
 20
549.829888
 42
0.258937
  0
VERTEX
  8
0
 10
222.328700
 20
549.337967
 42
0.345748
  0
VERTEX
  8
0
 10
222.784522
 20
549.283173
 42
0.005643
  0
VERTEX
  8
0
 10
225.112118
 20
550.734086
 42
0.011949
  0
VERTEX
  8
0
 10
227.857390
 20
552.582540
 42
0.007315
  0
VERTEX
  8
0
 10
231.009017
 20
554.885862
 42
-0.002934
  0
VERTEX
  8
0
 10
234.157442
 20
557.229436
 42
-0.004597
  0
VERTEX
  8
0
 10
236.895227
 20
559.203972
 42
-0.001396
  0
VERTEX
  8
0
 10
239.284490
 20
560.883992
 42
-0.153706
  0
VERTEX
  8
0
 10
239.652946
 20
561.000000
 42
-0.152216
  0
VERTEX
  8
0
 10
240.021862
 20
560.885027
 42
-0.001404
  0
VERTEX
  8
0
 10
242.402916
 20
559.231358
 42
-0.004592
  0
VERTEX
  8
0
 10
245.132191
 20
557.286921
 42
-0.002933
  0
VERTEX
  8
0
 10
248.270493
 20
554.979092
 42
0.009251
  0
VERTEX
  8
0
 10
251.844595
 20
552.419729
 42
0.023847
  0
VERTEX
  8
0
 10
254.541891
 20
550.746442
 42
0.026758
  0
VERTEX
  8
0
 10
256.524941
 20
549.778554
 42
0.305495
  0
VERTEX
  8
0
 10
257.336710
 20
549.936710
 42
0.086731
  0
VERTEX
  8
0
 10
257.691183
 20
550.441332
 42
0.110164
  0
VERTEX
  8
0
 10
257.815045
 20
550.995495
 42
0.100386
  0
VERTEX
  8
0
 10
257.694959
 20
551.588978
 42
0.062031
  0
VERTEX
  8
0
 10
257.337745
 20
552.207618
 42
-0.057272
  0
VERTEX
  8
0
 10
256.881151
 20
552.981332
 42
-0.011863
  0
VERTEX
  8
0
 10
256.272100
 20
554.442238
 42
-0.012320
  0
VERTEX
  8
0
 10
255.643525
 20
556.182434
 42
-0.011340
  0
VERTEX
  8
0
 10
255.082662
 20
558.000000
 42
0.007491
  0
VERTEX
  8
0
 10
254.527298
 20
559.850174
 42
0.007427
  0
VERTEX
  8
0
 10
253.915244
 20
561.688202
 42
0.007319
  0
VERTEX
  8
0
 10
253.332630
 20
563.279646
 42
0.028447
  0
VERTEX
  8
0
 10
252.902536
 20
564.236431
 42
-0.086523
  0
VERTEX
  8
0
 10
252.092677
 20
566.793507
 42
-0.148157
  0
VERTEX
  8
0
 10
252.446414
 20
568.984454
 42
-0.096779
  0
VERTEX
  8
0
 10
254.149788
 20
571.238183
 42
-0.024146
  0
VERTEX
  8
0
 10
257.750000
 20
574.163568
 42
0.003356
  0
VERTEX
  8
0
 10
260.122765
 20
575.933079
 42
0.003249
  0
VERTEX
  8
0
 10
262.497310
 20
577.753220
 42
0.003209
  0
VERTEX
  8
0
 10
264.566034
 20
579.381793
 42
0.011952
  0
VERTEX
  8
0
 10
265.836586
 20
580.445963
 42
0.000000
  0
VERTEX
  8
0
 10
268.173172
 20
582.500000
 42
0.000000
  0
VERTEX
  8
0
 10
257.483362
 20
583.000000
 42
0.000000
  0
VERTEX
  8
0
 10
246.793552
 20
583.500000
 42
0.000000
  0
VERTEX
  8
0
 10
243.646776
 20
593.242641
 42
0.005451
  0
VERTEX
  8
0
 10
242.395096
 20
596.978197
 42
0.008808
  0
VERTEX
  8
0
 10
241.239691
 20
600.125542
 42
0.003238
  0
VERTEX
  8
0
 10
240.195657
 20
602.770726
 42
0.302963
  0
VERTEX
  8
0
 10
239.871320
 20
602.992641
 42
0.236450
  0
VERTEX
  8
0
 10
239.568472
 20
602.845351
 42
0.026061
  0
VERTEX
  8
0
 10
239.118553
 20
602.190026
 42
0.027375
  0
VERTEX
  8
0
 10
238.639934
 20
601.302993
 42
0.018747
  0
SEQEND
  0
POLYLINE
  8
0
 66
1
 70
1
  0
VERTEX
  8
0
 10
247.500000
 20
505.024305
 42
0.000908
  0
VERTEX
  8
0
 10
227.544096
 20
485.006570
 42
0.001482
  0
VERTEX
  8
0
 10
210.696333
 20
467.944256
 42
0.000162
  0
VERTEX
  8
0
 10
195.707007
 20
452.663903
 42
0.143120
  0
VERTEX
  8
0
 10
195.232199
 20
451.776193
 42
0.249197
  0
VERTEX
  8
0
 10
195.489607
 20
450.886400
 42
0.000247
  0
VERTEX
  8
0
 10
210.467401
 20
435.456823
 42
0.002264
  0
VERTEX
  8
0
 10
227.359549
 20
418.229112
 42
0.001377
  0
VERTEX
  8
0
 10
247.472776
 20
398.012993
 42
0.000000
  0
VERTEX
  8
0
 10
299.981155
 20
345.525986
 42
0.000000
  0
VERTEX
  8
0
 10
352.490577
 20
398.000104
 42
0.000907
  0
VERTEX
  8
0
 10
372.623480
 20
418.192602
 42
0.001491
  0
VERTEX
  8
0
 10
389.575357
 20
435.358536
 42
0.000127
  0
VERTEX
  8
0
 10
404.712114
 20
450.785954
 42
0.196376
  0
VERTEX
  8
0
 10
405.000000
 20
451.490683
 42
0.198253
  0
VERTEX
  8
0
 10
404.480548
 20
452.749264
 42
0.000036
  0
VERTEX
  8
0
 10
352.867083
 20
504.617825
 42
0.000035
  0
VERTEX
  8
0
 10
301.241950
 20
556.483345
 42
0.200486
  0
VERTEX
  8
0
 10
299.996462
 20
556.998112
 42
0.196592
  0
VERTEX
  8
0
 10
299.649457
 20
556.854647
 42
0.000031
  0
VERTEX
  8
0
 10
284.370836
 20
541.730027
 42
0.000738
  0
VERTEX
  8
0
 10
267.474216
 20
524.952193
 42
0.000445
  0
SEQEND
  0
POLYLINE
  8
0
 66
1
 70
1
  0
VERTEX
  8
0
 10
344.711165
 20
496.766642
 42
-0.000902
  0
VERTEX
  8
0
 10
361.692180
 20
479.745596
 42
-0.001483
  0
VERTEX
  8
0
 10
375.990155
 20
465.276547
 42
-0.000125
  0
VERTEX
  8
0
 10
388.758568
 20
452.271964
 42
-0.196467
  0
VERTEX
  8
0
 10
389.000000
 20
451.681247
 42
-0.199947
  0
VERTEX
  8
0
 10
388.389515
 20
450.215661
 42
-0.000069
  0
VERTEX
  8
0
 10
344.722159
 20
406.906475
 42
-0.000070
  0
VERTEX
  8
0
 10
301.049007
 20
363.615723
 42
-0.197161
  0
VERTEX
  8
0
 10
299.562598
 20
363.002065
 42
-0.199253
  0
VERTEX
  8
0
 10
297.946805
 20
363.668420
 42
-0.000085
  0
VERTEX
  8
0
 10
254.800648
 20
406.752244
 42
-0.000085
  0
VERTEX
  8
0
 10
211.669899
 20
449.850100
 42
-0.198967
  0
VERTEX
  8
0
 10
211.000000
 20
451.466899
 42
-0.198023
  0
VERTEX
  8
0
 10
211.509950
 20
452.704006
 42
-0.000048
  0
VERTEX
  8
0
 10
255.114671
 20
496.599610
 42
-0.000048
  0
VERTEX
  8
0
 10
298.730991
 20
540.490009
 42
-0.199702
  0
VERTEX
  8
0
 10
299.956951
 20
541.000000
 42
-0.197352
  0
VERTEX
  8
0
 10
300.282029
 20
540.866490
 42
-0.000038
  0
VERTEX
  8
0
 10
313.295470
 20
528.006451
 42
-0.000814
  0
VERTEX
  8
0
 10
327.695974
 20
513.727097
 42
-0.000492
  0
SEQEND
  0
POLYLINE
  8
0
 66
1
 70
1
  0
VERTEX
  8
0
 10
403.202031
 20
549.983382
 42
0.004892
  0
VERTEX
  8
0
 10
402.358670
 20
547.188027
 42
0.006428
  0
VERTEX
  8
0
 10
401.646846
 20
544.619791
 42
0.004804
  0
VERTEX
  8
0
 10
401.100386
 20
542.460891
 42
0.059647
  0
VERTEX
  8
0
 10
401.000000
 20
541.622380
 42
-0.173719
  0
VERTEX
  8
0
 10
400.252245
 20
539.535128
 42
-0.123194
  0
VERTEX
  8
0
 10
398.235769
 20
538.041171
 42
-0.074833
  0
VERTEX
  8
0
 10
394.802530
 20
537.189730
 42
-0.028241
  0
VERTEX
  8
0
 10
389.846011
 20
537.005068
 42
0.003086
  0
VERTEX
  8
0
 10
380.013087
 20
537.133449
 42
0.235873
  0
VERTEX
  8
0
 10
378.639053
 20
536.458842
 42
0.423325
  0
VERTEX
  8
0
 10
378.812029
 20
535.312637
 42
0.005890
  0
VERTEX
  8
0
 10
385.178126
 20
530.879037
 42
-0.010428
  0
VERTEX
  8
0
 10
391.961564
 20
526.062783
 42
-0.148808
  0
VERTEX
  8
0
 10
393.706592
 20
523.704719
 42
-0.157598
  0
VERTEX
  8
0
 10
393.790137
 20
520.826214
 42
-0.012093
  0
VERTEX
  8
0
 10
391.412378
 20
513.346566
 42
0.000759
  0
VERTEX
  8
0
 10
390.110429
 20
509.551251
 42
0.001217
  0
VERTEX
  8
0
 10
389.012391
 20
506.308656
 42
0.000201
  0
VERTEX
  8
0
 10
388.048434
 20
503.435200
 42
0.073110
  0
VERTEX
  8
0
 10
388.008943
 20
503.214816
 42
0.591012
  0
VERTEX
  8
0
 10
388.361610
 20
503.006009
 42
0.006749
  0
VERTEX
  8
0
 10
391.267224
 20
504.773452
 42
0.011332
  0
VERTEX
  8
0
 10
394.914451
 20
507.176841
 42
0.005882
  0
VERTEX
  8
0
 10
399.362303
 20
510.332610
 42
-0.010279
  0
VERTEX
  8
0
 10
402.623830
 20
512.603818
 42
-0.031844
  0
VERTEX
  8
0
 10
404.945429
 20
513.945610
 42
-0.047722
  0
VERTEX
  8
0
 10
406.608312
 20
514.581065
 42
-0.219458
  0
VERTEX
  8
0
 10
407.600915
 20
514.418411
 42
-0.002052
  0
VERTEX
  8
0
 10
408.467772
 20
513.827152
 42
-0.000185
  0
VERTEX
  8
0
 10
410.633057
 20
512.336034
 42
-0.000240
  0
VERTEX
  8
0
 10
413.214002
 20
510.555440
 42
-0.000187
  0
VERTEX
  8
0
 10
416.015497
 20
508.619151
 42
0.008492
  0
VERTEX
  8
0
 10
418.760838
 20
506.788291
 42
0.013738
  0
VERTEX
  8
0
 10
421.163049
 20
505.336206
 42
0.007416
  0
VERTEX
  8
0
 10
423.181939
 20
504.229606
 42
0.329162
  0
VERTEX
  8
0
 10
423.630458
 20
504.297125
 42
0.258269
  0
VERTEX
  8
0
 10
423.769797
 20
504.781860
 42
0.004925
  0
VERTEX
  8
0
 10
423.137204
 20
507.418937
 42
0.010621
  0
VERTEX
  8
0
 10
422.284835
 20
510.540908
 42
0.006749
  0
VERTEX
  8
0
 10
421.166564
 20
514.139840
 42
-0.006479
  0
VERTEX
  8
0
 10
420.041903
 20
517.752442
 42
-0.009879
  0
VERTEX
  8
0
 10
419.168815
 20
520.918333
 42
-0.004922
  0
VERTEX
  8
0
 10
418.515112
 20
523.595525
 42
-0.198346
  0
VERTEX
  8
0
 10
418.610385
 20
524.178606
 42
-0.091635
  0
VERTEX
  8
0
 10
419.030037
 20
524.641599
 42
-0.002718
  0
VERTEX
  8
0
 10
421.131704
 20
526.226945
 42
-0.005341
  0
VERTEX
  8
0
 10
423.645603
 20
528.060433
 42
-0.003651
  0
VERTEX
  8
0
 10
426.538461
 20
530.091638
 42
0.005524
  0
VERTEX
  8
0
 10
433.481399
 20
535.005523
 42
0.351533
  0
VERTEX
  8
0
 10
433.850323
 20
536.350259
 42
0.298505
  0
VERTEX
  8
0
 10
432.591475
 20
537.179172
 42
0.004611
  0
VERTEX
  8
0
 10
423.500000
 20
537.114761
 42
-0.009557
  0
VERTEX
  8
0
 10
420.346003
 20
537.123615
 42
-0.012787
  0
VERTEX
  8
0
 10
417.487852
 20
537.259460
 42
-0.009991
  0
VERTEX
  8
0
 10
415.129699
 20
537.479514
 42
-0.117067
  0
VERTEX
  8
0
 10
414.267155
 20
537.790562
 42
-0.140646
  0
VERTEX
  8
0
 10
413.657855
 20
538.496345
 42
-0.009384
  0
VERTEX
  8
0
 10
412.571539
 20
540.969060
 42
-0.012942
  0
VERTEX
  8
0
 10
411.391577
 20
544.017691
 42
-0.009295
  0
VERTEX
  8
0
 10
410.226073
 20
547.478775
 42
0.008608
  0
VERTEX
  8
0
 10
409.076976
 20
550.906717
 42
0.012943
  0
VERTEX
  8
0
 10
407.946982
 20
553.850241
 42
0.007771
  0
VERTEX
  8
0
 10
406.912675
 20
556.243249
 42
0.209364
  0
VERTEX
  8
0
 10
406.410948
 20
556.696351
 42
0.357594
  0
VERTEX
  8
0
 10
405.913511
 20
556.506213
 42
0.018238
  0
VERTEX
  8
0
 10
405.052988
 20
554.862863
 42
0.022280
  0
VERTEX
  8
0
 10
404.118773
 20
552.661552
 42
0.013501
  0
SEQEND
  0
POLYLINE
  8
0
 66
1
 70
1
  0
VERTEX
  8
0
 10
407.465712
 20
403.232473
 42
0.000000
  0
VERTEX
  8
0
 10
404.431423
 20
393.500000
 42
0.000000
  0
VERTEX
  8
0
 10
393.531564
 20
393.000000
 42
0.004799
  0
VERTEX
  8
0
 10
384.986783
 20
392.525813
 42
0.353190
  0
VERTEX
  8
0
 10
384.026066
 20
391.641407
 42
0.284862
  0
VERTEX
  8
0
 10
384.596842
 20
390.318474
 42
0.003722
  0
VERTEX
  8
0
 10
392.342444
 20
385.007944
 42
-0.013087
  0
VERTEX
  8
0
 10
395.325939
 20
382.879188
 42
-0.032142
  0
VERTEX
  8
0
 10
397.367528
 20
381.123785
 42
-0.043857
  0
VERTEX
  8
0
 10
398.620409
 20
379.662333
 42
-0.158229
  0
VERTEX
  8
0
 10
398.986622
 20
378.507944
 42
-0.059873
  0
VERTEX
  8
0
 10
398.832529
 20
377.294051
 42
-0.007090
  0
VERTEX
  8
0
 10
398.132607
 20
374.663490
 42
-0.008393
  0
VERTEX
  8
0
 10
397.200033
 20
371.549897
 42
-0.006792
  0
VERTEX
  8
0
 10
396.098123
 20
368.240106
 42
0.009376
  0
VERTEX
  8
0
 10
395.050998
 20
365.039773
 42
0.015022
  0
VERTEX
  8
0
 10
394.291605
 20
362.268093
 42
0.008838
  0
VERTEX
  8
0
 10
393.781197
 20
359.982428
 42
0.314617
  0
VERTEX
  8
0
 10
393.985677
 20
359.508852
 42
0.278897
  0
VERTEX
  8
0
 10
394.537053
 20
359.503557
 42
0.006297
  0
VERTEX
  8
0
 10
396.884428
 20
360.932948
 42
0.012309
  0
VERTEX
  8
0
 10
399.648012
 20
362.760087
 42
0.007788
  0
VERTEX
  8
0
 10
402.782775
 20
365.018747
 42
-0.002815
  0
VERTEX
  8
0
 10
408.581887
 20
369.285375
 42
-0.047508
  0
VERTEX
  8
0
 10
410.626866
 20
370.493849
 42
-0.168601
  0
VERTEX
  8
0
 10
411.955816
 20
370.633544
 42
-0.122070
  0
VERTEX
  8
0
 10
413.292206
 20
369.950889
 42
0.022738
  0
VERTEX
  8
0
 10
417.310762
 20
366.768905
 42
0.011480
  0
VERTEX
  8
0
 10
422.640225
 20
363.112583
 42
0.003863
  0
VERTEX
  8
0
 10
428.110948
 20
359.601217
 42
0.486742
  0
VERTEX
  8
0
 10
428.780077
 20
359.840230
 42
0.141240
  0
VERTEX
  8
0
 10
428.808979
 20
360.542607
 42
0.004696
  0
VERTEX
  8
0
 10
428.114095
 20
363.276655
 42
0.008592
  0
VERTEX
  8
0
 10
427.199906
 20
366.511018
 42
0.005840
  0
VERTEX
  8
0
 10
426.053590
 20
370.160748
 42
-0.000598
  0
VERTEX
  8
0
 10
424.882909
 20
373.755782
 42
-0.000968
  0
VERTEX
  8
0
 10
423.897001
 20
376.815920
 42
-0.000122
  0
VERTEX
  8
0
 10
423.024630
 20
379.544012
 42
-0.077459
  0
VERTEX
  8
0
 10
423.000007
 20
379.701959
 42
-0.239717
  0
VERTEX
  8
0
 10
423.063951
 20
379.827680
 42
-0.000940
  0
VERTEX
  8
0
 10
424.395315
 20
380.794005
 42
-0.004402
  0
VERTEX
  8
0
 10
425.928960
 20
381.882321
 42
-0.002721
  0
VERTEX
  8
0
 10
427.750000
 20
383.135961
 42
0.003655
  0
VERTEX
  8
0
 10
429.605971
 20
384.418766
 42
0.005048
  0
VERTEX
  8
0
 10
431.251563
 20
385.599005
 42
0.003248
  0
VERTEX
  8
0
 10
432.615056
 20
386.611595
 42
0.060636
  0
VERTEX
  8
0
 10
433.000000
 20
386.982181
 42
-0.053814
  0
VERTEX
  8
0
 10
433.359839
 20
387.338153
 42
-0.004624
  0
VERTEX
  8
0
 10
434.381250
 20
388.136167
 42
-0.006062
  0
VERTEX
  8
0
 10
435.623062
 20
389.064334
 42
-0.004664
  0
VERTEX
  8
0
 10
437.000000
 20
390.048180
 42
0.000000
  0
VERTEX
  8
0
 10
440.500000
 20
392.500000
 42
0.000000
  0
VERTEX
  8
0
 10
429.563427
 20
393.000000
 42
0.000000
  0
VERTEX
  8
0
 10
418.626855
 20
393.500000
 42
0.000000
  0
VERTEX
  8
0
 10
415.326696
 20
403.000000
 42
-0.000647
  0
VERTEX
  8
0
 10
414.060573
 20
406.659988
 42
-0.001041
  0
VERTEX
  8
0
 10
412.992061
 20
409.782813
 42
-0.000157
  0
VERTEX
  8
0
 10
412.050553
 20
412.556129
 42
-0.068593
  0
VERTEX
  8
0
 10
412.013268
 20
412.750000
 42
0.249606
  0
VERTEX
  8
0
 10
411.956098
 20
412.844892
 42
0.060999
  0
VERTEX
  8
0
 10
411.783585
 20
412.921414
 42
0.048183
  0
VERTEX
  8
0
 10
411.538260
 20
412.970980
 42
0.031618
  0
VERTEX
  8
0
 10
411.250000
 20
412.982473
 42
0.298149
  0
VERTEX
  8
0
 10
410.869005
 20
412.720206
 42
0.004542
  0
VERTEX
  8
0
 10
409.828990
 20
410.111180
 42
0.010476
  0
VERTEX
  8
0
 10
408.682988
 20
406.964686
 42
0.006528
  0
SEQEND
  0
POLYLINE
  8
0
 66
1
 70
1
  0
VERTEX
  8
0
 10
264.000000
 20
330.000000
 42
0.000000
  0
VERTEX
  8
0
 10
260.872895
 20
320.000000
 42
0.000000
  0
VERTEX
  8
0
 10
250.436447
 20
320.000000
 42
0.008124
  0
VERTEX
  8
0
 10
246.354244
 20
319.933668
 42
0.014511
  0
VERTEX
  8
0
 10
243.003805
 20
319.727304
 42
0.008511
  0
VERTEX
  8
0
 10
240.341861
 20
319.439885
 42
0.378179
  0
VERTEX
  8
0
 10
240.000000
 20
319.052543
 42
0.216244
  0
VERTEX
  8
0
 10
240.254444
 20
318.491728
 42
0.005894
  0
VERTEX
  8
0
 10
242.350000
 20
316.700903
 42
0.011187
  0
VERTEX
  8
0
 10
244.934043
 20
314.641090
 42
0.007315
  0
VERTEX
  8
0
 10
248.000000
 20
312.377432
 42
-0.007382
  0
VERTEX
  8
0
 10
251.065942
 20
310.113146
 42
-0.011281
  0
VERTEX
  8
0
 10
253.650000
 20
308.051392
 42
-0.005987
  0
VERTEX
  8
0
 10
255.743779
 20
306.259072
 42
-0.215978
  0
VERTEX
  8
0
 10
256.000000
 20
305.693576
 42
-0.073038
  0
VERTEX
  8
0
 10
255.901942
 20
305.025875
 42
-0.002298
  0
VERTEX
  8
0
 10
255.096378
 20
302.386496
 42
-0.004428
  0
VERTEX
  8
0
 10
254.102476
 20
299.280333
 42
-0.003050
  0
VERTEX
  8
0
 10
252.923838
 20
295.778182
 42
0.006349
  0
VERTEX
  8
0
 10
251.781201
 20
292.307431
 42
0.010047
  0
VERTEX
  8
0
 10
250.899903
 20
289.302149
 42
0.004394
  0
VERTEX
  8
0
 10
250.231994
 20
286.754239
 42
0.264144
  0
VERTEX
  8
0
 10
250.353563
 20
286.313104
 42
0.347910
  0
VERTEX
  8
0
 10
251.134963
 20
286.222231
 42
0.005537
  0
VERTEX
  8
0
 10
255.157051
 20
288.771540
 42
0.012836
  0
VERTEX
  8
0
 10
259.602617
 20
291.823806
 42
0.010934
  0
VERTEX
  8
0
 10
264.134374
 20
295.263190
 42
0.000000
  0
VERTEX
  8
0
 10
267.768747
 20
298.148889
 42
0.000000
  0
VERTEX
  8
0
 10
276.061486
 20
292.074445
 42
0.005311
  0
VERTEX
  8
0
 10
281.755278
 20
287.995946
 42
0.045300
  0
VERTEX
  8
0
 10
284.477193
 20
286.435942
 42
0.359751
  0
VERTEX
  8
0
 10
285.369918
 20
286.674176
 42
0.257974
  0
VERTEX
  8
0
 10
285.493535
 20
287.750000
 42
-0.013386
  0
VERTEX
  8
0
 10
285.183595
 20
288.564113
 42
-0.007401
  0
VERTEX
  8
0
 10
284.846656
 20
289.573437
 42
-0.007375
  0
VERTEX
  8
0
 10
284.535227
 20
290.607078
 42
-0.011769
  0
VERTEX
  8
0
 10
284.303079
 20
291.500000
 42
0.013467
  0
VERTEX
  8
0
 10
284.063133
 20
292.410216
 42
0.007620
  0
VERTEX
  8
0
 10
283.726116
 20
293.500000
 42
0.007602
  0
VERTEX
  8
0
 10
283.352600
 20
294.589181
 42
0.012388
  0
VERTEX
  8
0
 10
282.998967
 20
295.500000
 42
-0.015382
  0
VERTEX
  8
0
 10
281.978699
 20
298.175170
 42
-0.010639
  0
VERTEX
  8
0
 10
280.983269
 20
301.258093
 42
-0.008584
  0
VERTEX
  8
0
 10
280.179919
 20
304.117684
 42
-0.064265
  0
VERTEX
  8
0
 10
280.000000
 20
305.511727
 42
-0.201453
  0
VERTEX
  8
0
 10
280.292364
 20
306.207915
 42
-0.010096
  0
VERTEX
  8
0
 10
282.129687
 20
307.938304
 42
-0.014906
  0
VERTEX
  8
0
 10
284.472069
 20
309.933121
 42
-0.010115
  0
VERTEX
  8
0
 10
287.250000
 20
312.068658
 42
0.004267
  0
VERTEX
  8
0
 10
290.079457
 20
314.191626
 42
0.005885
  0
VERTEX
  8
0
 10
292.581074
 20
316.149241
 42
0.003844
  0
VERTEX
  8
0
 10
294.644220
 20
317.829475
 42
0.069477
  0
VERTEX
  8
0
 10
295.217487
 20
318.456154
 42
0.517934
  0
VERTEX
  8
0
 10
295.034328
 20
318.952367
 42
0.027066
  0
VERTEX
  8
0
 10
293.076799
 20
319.364066
 42
0.020258
  0
VERTEX
  8
0
 10
289.935590
 20
319.719476
 42
0.006384
  0
VERTEX
  8
0
 10
285.217487
 20
320.000000
 42
0.000000
  0
VERTEX
  8
0
 10
274.500000
 20
320.500000
 42
0.000000
  0
VERTEX
  8
0
 10
273.500000
 20
324.500000
 42
0.007601
  0
VERTEX
  8
0
 10
273.072790
 20
326.104756
 42
0.008801
  0
VERTEX
  8
0
 10
272.616071
 20
327.618750
 42
0.008003
  0
VERTEX
  8
0
 10
272.187225
 20
328.884830
 42
0.050390
  0
VERTEX
  8
0
 10
271.895137
 20
329.500000
 42
-0.047697
  0
VERTEX
  8
0
 10
271.587079
 20
330.139905
 42
-0.005883
  0
VERTEX
  8
0
 10
271.067438
 20
331.601562
 42
-0.006910
  0
VERTEX
  8
0
 10
270.493176
 20
333.357991
 42
-0.005662
  0
VERTEX
  8
0
 10
269.926822
 20
335.250000
 42
0.013083
  0
VERTEX
  8
0
 10
269.352319
 20
337.070444
 42
0.020294
  0
VERTEX
  8
0
 10
268.752932
 20
338.604688
 42
0.015527
  0
VERTEX
  8
0
 10
268.188829
 20
339.790364
 42
0.280981
  0
VERTEX
  8
0
 10
267.845237
 20
340.000000
 42
0.305942
  0
VERTEX
  8
0
 10
267.478842
 20
339.752657
 42
0.004026
  0
VERTEX
  8
0
 10
266.419469
 20
337.062500
 42
0.009879
  0
VERTEX
  8
0
 10
265.250576
 20
333.833629
 42
0.006126
  0
SEQEND
  0
POLYLINE
  8
0
 66
1
 70
1
  0
VERTEX
  8
0
 10
293.050754
 20
503.911985
 42
0.029971
  0
VERTEX
  8
0
 10
285.470770
 20
502.465283
 42
0.045833
  0
VERTEX
  8
0
 10
279.166548
 20
500.234414
 42
0.048769
  0
VERTEX
  8
0
 10
273.662083
 20
497.015306
 42
0.040439
  0
VERTEX
  8
0
 10
268.501020
 20
492.601818
 42
0.033044
  0
VERTEX
  8
0
 10
263.324461
 20
486.656911
 42
0.091134
  0
VERTEX
  8
0
 10
260.825703
 20
481.720542
 42
0.062117
  0
VERTEX
  8
0
 10
259.753463
 20
475.190563
 42
0.009669
  0
VERTEX
  8
0
 10
259.500000
 20
462.085451
 42
0.003457
  0
VERTEX
  8
0
 10
259.558555
 20
453.615688
 42
0.013843
  0
VERTEX
  8
0
 10
259.773682
 20
448.436328
 42
0.014108
  0
VERTEX
  8
0
 10
260.107158
 20
445.023750
 42
0.288063
  0
VERTEX
  8
0
 10
260.735649
 20
444.256901
 42
0.189876
  0
VERTEX
  8
0
 10
261.294019
 20
444.285959
 42
0.075169
  0
VERTEX
  8
0
 10
261.949246
 20
444.712751
 42
0.060013
  0
VERTEX
  8
0
 10
262.596684
 20
445.445711
 42
0.044057
  0
VERTEX
  8
0
 10
263.131877
 20
446.390093
 42
-0.032378
  0
VERTEX
  8
0
 10
263.635731
 20
447.329603
 42
-0.052983
  0
VERTEX
  8
0
 10
264.191107
 20
448.040985
 42
-0.072976
  0
VERTEX
  8
0
 10
264.711369
 20
448.441750
 42
-0.272525
  0
VERTEX
  8
0
 10
265.108017
 20
448.433242
 42
-0.318495
  0
VERTEX
  8
0
 10
265.537963
 20
447.417872
 42
-0.045493
  0
VERTEX
  8
0
 10
264.815076
 20
445.138048
 42
-0.041252
  0
VERTEX
  8
0
 10
263.398556
 20
442.420052
 42
-0.034167
  0
VERTEX
  8
0
 10
261.471879
 20
439.784210
 42
0.024446
  0
VERTEX
  8
0
 10
259.619110
 20
437.350167
 42
0.154682
  0
VERTEX
  8
0
 10
259.172291
 20
435.878722
 42
0.165704
  0
VERTEX
  8
0
 10
259.670512
 20
434.472702
 42
0.029116
  0
VERTEX
  8
0
 10
261.562020
 20
432.347071
 42
0.036825
  0
VERTEX
  8
0
 10
263.180761
 20
430.950696
 42
0.098693
  0
VERTEX
  8
0
 10
264.550804
 20
430.303336
 42
0.075665
  0
VERTEX
  8
0
 10
266.274215
 20
430.141508
 42
0.015720
  0
VERTEX
  8
0
 10
269.312020
 20
430.412138
 42
-0.062627
  0
VERTEX
  8
0
 10
273.926426
 20
430.389982
 42
-0.099787
  0
VERTEX
  8
0
 10
277.648316
 20
429.120101
 42
-0.095582
  0
VERTEX
  8
0
 10
280.694863
 20
426.457183
 42
-0.053615
  0
VERTEX
  8
0
 10
283.294379
 20
422.262359
 42
0.015496
  0
VERTEX
  8
0
 10
284.638472
 20
419.671990
 42
0.079707
  0
VERTEX
  8
0
 10
285.637963
 20
418.407048
 42
0.134048
  0
VERTEX
  8
0
 10
286.719269
 20
417.848901
 42
0.078608
  0
VERTEX
  8
0
 10
288.183488
 20
417.771068
 42
-0.049042
  0
VERTEX
  8
0
 10
289.644293
 20
417.779512
 42
-0.193193
  0
VERTEX
  8
0
 10
290.429571
 20
417.376746
 42
-0.131912
  0
VERTEX
  8
0
 10
290.890691
 20
416.429162
 42
-0.018759
  0
VERTEX
  8
0
 10
291.223633
 20
414.271068
 42
0.005926
  0
VERTEX
  8
0
 10
291.421995
 20
412.722600
 42
0.006031
  0
VERTEX
  8
0
 10
291.655951
 20
411.188323
 42
0.005878
  0
VERTEX
  8
0
 10
291.891017
 20
409.859897
 42
0.024692
  0
VERTEX
  8
0
 10
292.080678
 20
409.072157
 42
-0.173690
  0
VERTEX
  8
0
 10
292.041944
 20
408.408557
 42
-0.100746
  0
VERTEX
  8
0
 10
291.583687
 20
407.743113
 42
-0.070512
  0
VERTEX
  8
0
 10
290.721166
 20
407.119340
 42
-0.036501
  0
VERTEX
  8
0
 10
289.500000
 20
406.585148
 42
0.017525
  0
VERTEX
  8
0
 10
288.305656
 20
406.115792
 42
0.019892
  0
VERTEX
  8
0
 10
287.197611
 20
405.581548
 42
0.019514
  0
VERTEX
  8
0
 10
286.299941
 20
405.057916
 42
0.095445
  0
VERTEX
  8
0
 10
285.874846
 20
404.655978
 42
-0.256626
  0
VERTEX
  8
0
 10
284.704929
 20
404.097599
 42
-0.112791
  0
VERTEX
  8
0
 10
283.002859
 20
404.590236
 42
-0.086753
  0
VERTEX
  8
0
 10
281.311601
 20
405.956332
 42
-0.093370
  0
VERTEX
  8
0
 10
280.236064
 20
407.783254
 42
-0.020816
  0
VERTEX
  8
0
 10
279.785879
 20
409.216940
 42
-0.006263
  0
VERTEX
  8
0
 10
279.220028
 20
411.432042
 42
-0.006265
  0
VERTEX
  8
0
 10
278.646920
 20
413.935518
 42
-0.006763
  0
VERTEX
  8
0
 10
278.152023
 20
416.389654
 42
0.026330
  0
VERTEX
  8
0
 10
277.039559
 20
420.973047
 42
0.057953
  0
VERTEX
  8
0
 10
275.616116
 20
424.279392
 42
0.085540
  0
VERTEX
  8
0
 10
273.937149
 20
426.301385
 42
0.178654
  0
VERTEX
  8
0
 10
272.044335
 20
427.000000
 42
0.186342
  0
VERTEX
  8
0
 10
270.478451
 20
426.395429
 42
0.149799
  0
VERTEX
  8
0
 10
269.548787
 20
424.832116
 42
0.092095
  0
VERTEX
  8
0
 10
269.409061
 20
422.314258
 42
0.040738
  0
VERTEX
  8
0
 10
270.104916
 20
419.044159
 42
-0.025943
  0
VERTEX
  8
0
 10
270.644077
 20
416.833506
 42
-0.047444
  0
VERTEX
  8
0
 10
270.815403
 20
414.987236
 42
-0.047089
  0
VERTEX
  8
0
 10
270.636060
 20
413.132484
 42
-0.025154
  0
VERTEX
  8
0
 10
270.086282
 20
410.893646
 42
0.000000
  0
VERTEX
  8
0
 10
268.855988
 20
406.787292
 42
0.000000
  0
VERTEX
  8
0
 10
276.589376
 20
399.643646
 42
0.007248
  0
VERTEX
  8
0
 10
284.260177
 20
392.761173
 42
0.079909
  0
VERTEX
  8
0
 10
287.752754
 20
390.584580
 42
0.091405
  0
VERTEX
  8
0
 10
291.600595
 20
389.742189
 42
0.010795
  0
VERTEX
  8
0
 10
300.394504
 20
389.639880
 42
0.000000
  0
VERTEX
  8
0
 10
312.289007
 20
389.758298
 42
0.000000
  0
VERTEX
  8
0
 10
317.190274
 20
395.129149
 42
0.021064
  0
VERTEX
  8
0
 10
320.884166
 20
399.536163
 42
0.047219
  0
VERTEX
  8
0
 10
323.205534
 20
403.229723
 42
0.058305
  0
VERTEX
  8
0
 10
324.495257
 20
406.760093
 42
0.053206
  0
VERTEX
  8
0
 10
324.988028
 20
410.604920
 42
-0.002386
  0
VERTEX
  8
0
 10
325.034921
 20
412.412964
 42
-0.001269
  0
VERTEX
  8
0
 10
325.109330
 20
414.650679
 42
-0.001263
  0
VERTEX
  8
0
 10
325.196950
 20
416.937026
 42
-0.001964
  0
VERTEX
  8
0
 10
325.285226
 20
418.908031
 42
0.022833
  0
VERTEX
  8
0
 10
325.290474
 20
420.642134
 42
0.034402
  0
VERTEX
  8
0
 10
325.122500
 20
422.143590
 42
0.037514
  0
VERTEX
  8
0
 10
324.827567
 20
423.274173
 42
0.231963
  0
VERTEX
  8
0
 10
324.414773
 20
423.686440
 42
0.260553
  0
VERTEX
  8
0
 10
322.567574
 20
423.348632
 42
0.061762
  0
VERTEX
  8
0
 10
320.337586
 20
420.987207
 42
0.055562
  0
VERTEX
  8
0
 10
318.412985
 20
417.644482
 42
0.066954
  0
VERTEX
  8
0
 10
317.420207
 20
414.161662
 42
-0.030300
  0
VERTEX
  8
0
 10
316.544254
 20
409.939368
 42
-0.059141
  0
VERTEX
  8
0
 10
315.260299
 20
406.755148
 42
-0.083507
  0
VERTEX
  8
0
 10
313.668917
 20
404.738428
 42
-0.179969
  0
VERTEX
  8
0
 10
311.858408
 20
404.015313
 42
-0.332150
  0
VERTEX
  8
0
 10
311.059211
 20
404.582866
 42
-0.042160
  0
VERTEX
  8
0
 10
310.552001
 20
406.772283
 42
-0.042468
  0
VERTEX
  8
0
 10
310.414974
 20
409.112160
 42
-0.192063
  0
VERTEX
  8
0
 10
310.944645
 20
410.344645
 42
0.119622
  0
VERTEX
  8
0
 10
311.353077
 20
411.014892
 42
0.027311
  0
VERTEX
  8
0
 10
311.689989
 20
412.309674
 42
0.026744
  0
VERTEX
  8
0
 10
311.922430
 20
413.885172
 42
0.023255
  0
VERTEX
  8
0
 10
312.000000
 20
415.552117
 42
-0.037437
  0
VERTEX
  8
0
 10
312.148374
 20
417.530994
 42
-0.035249
  0
VERTEX
  8
0
 10
312.590546
 20
419.506981
 42
-0.035403
  0
VERTEX
  8
0
 10
313.303293
 20
421.392599
 42
-0.038612
  0
VERTEX
  8
0
 10
314.258071
 20
423.102117
 42
-0.076783
  0
VERTEX
  8
0
 10
316.900350
 20
425.997039
 42
-0.046035
  0
VERTEX
  8
0
 10
320.788230
 20
428.576172
 42
-0.046024
  0
VERTEX
  8
0
 10
325.084306
 20
430.401319
 42
-0.076505
  0
VERTEX
  8
0
 10
328.961890
 20
431.015313
 42
0.039833
  0
VERTEX
  8
0
 10
332.069995
 20
431.276856
 42
0.133598
  0
VERTEX
  8
0
 10
333.911591
 20
432.119660
 42
0.140775
  0
VERTEX
  8
0
 10
335.017524
 20
433.749221
 42
0.046122
  0
VERTEX
  8
0
 10
335.669471
 20
436.605880
 42
0.038951
  0
VERTEX
  8
0
 10
335.792940
 20
438.875964
 42
0.081854
  0
VERTEX
  8
0
 10
335.465722
 20
440.606584
 42
0.063978
  0
VERTEX
  8
0
 10
334.538475
 20
442.396412
 42
0.016697
  0
VERTEX
  8
0
 10
332.603351
 20
445.000000
 42
-0.028235
  0
VERTEX
  8
0
 10
330.490711
 20
447.983763
 42
-0.056812
  0
VERTEX
  8
0
 10
329.247867
 20
450.582159
 42
-0.112783
  0
VERTEX
  8
0
 10
329.060786
 20
452.307178
 42
-0.380464
  0
VERTEX
  8
0
 10
329.839485
 20
453.000000
 42
-0.190598
  0
VERTEX
  8
0
 10
330.235938
 20
452.843176
 42
-0.037004
  0
VERTEX
  8
0
 10
330.766975
 20
452.265625
 42
-0.034577
  0
VERTEX
  8
0
 10
331.320433
 20
451.457269
 42
-0.025934
  0
VERTEX
  8
0
 10
331.818046
 20
450.500000
 42
0.046224
  0
VERTEX
  8
0
 10
332.365517
 20
449.543618
 42
0.050463
  0
VERTEX
  8
0
 10
333.065499
 20
448.734375
 42
0.056592
  0
VERTEX
  8
0
 10
333.805096
 20
448.179373
 42
0.133459
  0
VERTEX
  8
0
 10
334.465141
 20
448.000000
 42
0.275334
  0
VERTEX
  8
0
 10
336.437134
 20
449.174990
 42
0.066212
  0
VERTEX
  8
0
 10
337.848639
 20
452.881542
 42
0.042027
  0
VERTEX
  8
0
 10
338.732721
 20
458.826821
 42
0.015905
  0
VERTEX
  8
0
 10
339.000000
 20
467.226897
 42
0.005795
  0
VERTEX
  8
0
 10
338.918819
 20
474.230874
 42
0.030570
  0
VERTEX
  8
0
 10
338.595413
 20
478.058073
 42
0.048577
  0
VERTEX
  8
0
 10
337.877824
 20
480.958964
 42
0.031482
  0
VERTEX
  8
0
 10
336.522709
 20
484.141722
 42
0.022428
  0
VERTEX
  8
0
 10
333.730652
 20
489.129600
 42
0.036943
  0
VERTEX
  8
0
 10
330.888587
 20
493.035663
 42
0.040273
  0
VERTEX
  8
0
 10
327.696566
 20
496.240678
 42
0.034116
  0
VERTEX
  8
0
 10
323.857200
 20
499.091634
 42
0.050312
  0
VERTEX
  8
0
 10
317.434769
 20
502.353830
 42
0.053607
  0
VERTEX
  8
0
 10
310.624672
 20
504.182434
 42
0.046137
  0
VERTEX
  8
0
 10
302.750430
 20
504.679213
 42
0.024871
  0
SEQEND
  0
POLYLINE
  8
0
 66
1
 70
1
  0
VERTEX
  8
0
 10
289.365141
 20
460.927420
 42
-0.086809
  0
VERTEX
  8
0
 10
291.248106
 20
458.827986
 42
-0.151306
  0
VERTEX
  8
0
 10
291.838593
 20
456.586437
 42
-0.103767
  0
VERTEX
  8
0
 10
291.127615
 20
453.796809
 42
-0.028550
  0
VERTEX
  8
0
 10
288.890315
 20
449.829070
 42
-0.080865
  0
VERTEX
  8
0
 10
285.022958
 20
445.524058
 42
-0.178472
  0
VERTEX
  8
0
 10
280.894708
 20
444.136283
 42
-0.196086
  0
VERTEX
  8
0
 10
277.129518
 20
445.800519
 42
-0.098153
  0
VERTEX
  8
0
 10
274.265593
 20
450.252237
 42
-0.058586
  0
VERTEX
  8
0
 10
273.359840
 20
453.671435
 42
-0.103979
  0
VERTEX
  8
0
 10
273.549252
 20
456.568038
 42
-0.112162
  0
VERTEX
  8
0
 10
274.862677
 20
458.995837
 42
-0.076137
  0
VERTEX
  8
0
 10
277.276837
 20
461.027281
 42
-0.063053
  0
VERTEX
  8
0
 10
280.432325
 20
462.442493
 42
-0.076127
  0
VERTEX
  8
0
 10
283.643092
 20
462.907080
 42
-0.080857
  0
VERTEX
  8
0
 10
286.688082
 20
462.385567
 42
-0.084080
  0
SEQEND
  0
POLYLINE
  8
0
 66
1
 70
1
  0
VERTEX
  8
0
 10
320.000000
 20
461.034887
 42
-0.052478
  0
VERTEX
  8
0
 10
321.285829
 20
459.812909
 42
-0.089804
  0
VERTEX
  8
0
 10
322.027927
 20
458.537200
 42
-0.067631
  0
VERTEX
  8
0
 10
322.395206
 20
456.836403
 42
-0.019408
  0
VERTEX
  8
0
 10
322.500000
 20
454.137687
 42
-0.066109
  0
VERTEX
  8
0
 10
321.958437
 20
450.059625
 42
-0.096472
  0
VERTEX
  8
0
 10
320.365472
 20
446.815132
 42
-0.112699
  0
VERTEX
  8
0
 10
317.892565
 20
444.742377
 42
-0.118841
  0
VERTEX
  8
0
 10
314.813265
 20
444.000000
 42
-0.082156
  0
VERTEX
  8
0
 10
313.198040
 20
444.267203
 42
-0.096161
  0
VERTEX
  8
0
 10
311.851569
 20
445.037456
 42
-0.058772
  0
VERTEX
  8
0
 10
310.444591
 20
446.572060
 42
-0.013885
  0
VERTEX
  8
0
 10
308.487579
 20
449.451963
 42
-0.023678
  0
VERTEX
  8
0
 10
305.886317
 20
453.976805
 42
-0.113952
  0
VERTEX
  8
0
 10
305.163359
 20
456.838255
 42
-0.181239
  0
VERTEX
  8
0
 10
305.927114
 20
459.010928
 42
-0.081843
  0
VERTEX
  8
0
 10
308.250000
 20
461.010960
 42
-0.061121
  0
VERTEX
  8
0
 10
311.333668
 20
462.408213
 42
-0.075471
  0
VERTEX
  8
0
 10
314.448787
 20
462.887603
 42
-0.080680
  0
VERTEX
  8
0
 10
317.397390
 20
462.414859
 42
-0.083971
  0
SEQEND
  0
POLYLINE
  8
0
 66
1
 70
1
  0
VERTEX
  8
0
 10
302.013821
 20
442.750000
 42
0.010315
  0
VERTEX
  8
0
 10
302.585105
 20
441.053193
 42
0.012080
  0
VERTEX
  8
0
 10
303.198588
 20
439.469375
 42
0.011070
  0
VERTEX
  8
0
 10
303.776512
 20
438.160669
 42
0.069557
  0
VERTEX
  8
0
 10
304.173880
 20
437.550000
 42
-0.115130
  0
VERTEX
  8
0
 10
304.884086
 20
436.207244
 42
-0.108982
  0
VERTEX
  8
0
 10
304.946241
 20
434.660210
 42
-0.135358
  0
VERTEX
  8
0
 10
304.373271
 20
433.461953
 42
-0.217245
  0
VERTEX
  8
0
 10
303.360243
 20
433.000000
 42
-0.086408
  0
VERTEX
  8
0
 10
302.633413
 20
433.126552
 42
-0.045857
  0
VERTEX
  8
0
 10
301.802593
 20
433.514063
 42
-0.043822
  0
VERTEX
  8
0
 10
301.001930
 20
434.080435
 42
-0.051750
  0
VERTEX
  8
0
 10
300.360243
 20
434.750000
 42
0.019628
  0
VERTEX
  8
0
 10
299.489417
 20
435.783912
 42
0.210938
  0
VERTEX
  8
0
 10
299.000000
 20
436.000000
 42
0.210938
  0
VERTEX
  8
0
 10
298.510583
 20
435.783912
 42
0.019628
  0
VERTEX
  8
0
 10
297.639757
 20
434.750000
 42
-0.056510
  0
VERTEX
  8
0
 10
296.005430
 20
433.076759
 42
-0.340869
  0
VERTEX
  8
0
 10
294.868865
 20
433.045804
 42
-0.243156
  0
VERTEX
  8
0
 10
294.255749
 20
434.271147
 42
-0.038582
  0
VERTEX
  8
0
 10
294.505763
 20
437.034109
 42
-0.032884
  0
VERTEX
  8
0
 10
295.368842
 20
440.669211
 42
-0.039698
  0
VERTEX
  8
0
 10
296.664047
 20
443.928898
 42
-0.042514
  0
VERTEX
  8
0
 10
298.117039
 20
446.338931
 42
-0.240290
  0
VERTEX
  8
0
 10
299.413182
 20
447.000000
 42
-0.219853
  0
VERTEX
  8
0
 10
299.986962
 20
446.734892
 42
-0.039026
  0
VERTEX
  8
0
 10
300.699633
 20
445.751562
 42
-0.035845
  0
VERTEX
  8
0
 10
301.410470
 20
444.377712
 42
-0.025426
  0
SEQEND
  0
POLYLINE
  8
0
 66
1
 70
1
  0
VERTEX
  8
0
 10
300.899510
 20
411.175817
 42
0.033026
  0
VERTEX
  8
0
 10
302.338448
 20
411.133659
 42
0.049164
  0
VERTEX
  8
0
 10
303.585858
 20
411.303074
 42
0.059949
  0
VERTEX
  8
0
 10
304.546210
 20
411.656887
 42
0.136923
  0
VERTEX
  8
0
 10
305.108971
 20
412.175817
 42
-0.077869
  0
VERTEX
  8
0
 10
305.604663
 20
412.753490
 42
-0.218006
  0
VERTEX
  8
0
 10
306.105656
 20
412.895878
 42
-0.134251
  0
VERTEX
  8
0
 10
306.717450
 20
412.623187
 42
-0.024773
  0
VERTEX
  8
0
 10
307.641194
 20
411.786928
 42
-0.044730
  0
VERTEX
  8
0
 10
308.570404
 20
410.675023
 42
-0.162876
  0
VERTEX
  8
0
 10
308.824580
 20
409.803618
 42
-0.101877
  0
VERTEX
  8
0
 10
308.556929
 20
408.720032
 42
-0.012198
  0
VERTEX
  8
0
 10
307.434680
 20
406.508567
 42
-0.010723
  0
VERTEX
  8
0
 10
306.276826
 20
404.464793
 42
-0.123388
  0
VERTEX
  8
0
 10
305.631010
 20
403.815126
 42
-0.309785
  0
VERTEX
  8
0
 10
305.036532
 20
403.849634
 42
-0.070271
  0
VERTEX
  8
0
 10
304.293386
 20
404.613449
 42
-0.012563
  0
VERTEX
  8
0
 10
303.803469
 20
405.320044
 42
-0.011958
  0
VERTEX
  8
0
 10
303.341237
 20
406.061912
 42
-0.011991
  0
VERTEX
  8
0
 10
302.964378
 20
406.736736
 42
-0.040918
  0
VERTEX
  8
0
 10
302.766987
 20
407.199039
 42
0.323633
  0
VERTEX
  8
0
 10
301.987534
 20
407.759100
 42
0.137452
  0
VERTEX
  8
0
 10
300.680431
 20
407.388712
 42
0.098179
  0
VERTEX
  8
0
 10
299.440588
 20
406.245092
 42
0.158820
  0
VERTEX
  8
0
 10
299.000000
 20
404.893011
 42
-0.147201
  0
VERTEX
  8
0
 10
298.582646
 20
403.506093
 42
-0.291696
  0
VERTEX
  8
0
 10
297.574312
 20
403.057552
 42
-0.198829
  0
VERTEX
  8
0
 10
296.382539
 20
403.774581
 42
-0.097992
  0
VERTEX
  8
0
 10
295.614052
 20
405.401604
 42
-0.049033
  0
VERTEX
  8
0
 10
295.428056
 20
406.649848
 42
-0.015814
  0
VERTEX
  8
0
 10
295.393783
 20
408.521954
 42
-0.015601
  0
VERTEX
  8
0
 10
295.487218
 20
410.619193
 42
-0.016885
  0
VERTEX
  8
0
 10
295.710637
 20
412.651604
 42
-0.002486
  0
VERTEX
  8
0
 10
296.156984
 20
415.640728
 42
-0.110685
  0
VERTEX
  8
0
 10
296.385601
 20
416.223794
 42
-0.656122
  0
VERTEX
  8
0
 10
296.613397
 20
416.181239
 42
-0.010915
  0
VERTEX
  8
0
 10
296.959368
 20
414.500000
 42
0.041448
  0
VERTEX
  8
0
 10
297.393849
 20
412.892447
 42
0.131544
  0
VERTEX
  8
0
 10
298.025067
 20
411.986233
 42
0.120113
  0
VERTEX
  8
0
 10
299.061464
 20
411.470520
 42
0.031843
  0
SEQEND
  0
ENDSEC
  0
EOF
